<svg width="22" height="16" viewBox="0 0 22 16" fill="none" xmlns="http://www.w3.org/2000/svg">
<path d="M21.2678 7.41259L18.6982 1.3338C18.6418 1.19997 18.5362 1.09583 18.4009 1.04083C18.2656 0.985843 18.1172 0.986816 17.9833 1.04375L16.7609 1.56058C16.627 1.61703 16.5229 1.72264 16.4679 1.85793C16.4129 1.99321 16.4139 2.14116 16.4708 2.27547L16.5365 2.43023C15.4527 2.82247 14.4551 2.58645 13.4881 2.35723C12.6 2.14651 11.7605 1.94796 11.0101 2.32901C11.0008 2.33387 10.9916 2.33923 10.9823 2.34507C10.5852 2.60445 10.2572 2.86384 9.97741 3.09938C9.65865 2.91445 9.22358 2.95436 8.76808 2.99669C8.10185 3.05899 7.28622 3.13442 6.50076 2.61126L6.55964 2.51345C6.63459 2.38886 6.65697 2.24238 6.62194 2.10077C6.5869 1.95915 6.4993 1.83992 6.37472 1.76449L5.23887 1.07831C4.98143 0.923064 4.64515 1.0058 4.48991 1.26323L1.07847 6.91279C1.00352 7.03738 0.981137 7.18386 1.01618 7.32547C1.05121 7.46709 1.13881 7.58632 1.2634 7.66175L2.39924 8.34793C2.48733 8.40098 2.58417 8.42629 2.68004 8.42629C2.86497 8.42629 3.04552 8.33236 3.14772 8.16301L3.38277 7.7732C4.0816 7.92503 4.56485 8.27348 4.73664 8.49101L4.21933 9.07937C3.76187 9.60009 3.81297 10.3963 4.33369 10.8542C4.56436 11.0571 4.85538 11.1661 5.16149 11.1661C5.18923 11.1661 5.21697 11.1652 5.24471 11.1632C5.29191 11.1603 5.33863 11.1545 5.38438 11.1462C5.38243 11.498 5.52648 11.8484 5.81068 12.0986C6.04136 12.3015 6.33238 12.4105 6.63848 12.4105C6.66622 12.4105 6.69396 12.4095 6.7217 12.4076C6.76014 12.4052 6.7981 12.4008 6.83558 12.3949C6.8346 12.4329 6.83509 12.4709 6.83752 12.5093C6.85942 12.8451 7.0098 13.1522 7.2614 13.3731C7.49986 13.5824 7.79574 13.6855 8.09065 13.6855C8.15879 13.6855 8.22692 13.6797 8.29456 13.669C8.29408 13.704 8.29456 13.7396 8.29651 13.7751C8.31841 14.1109 8.46878 14.418 8.72038 14.6389C8.95884 14.8482 9.25473 14.9513 9.54964 14.9513C9.83628 14.9513 10.1215 14.854 10.3516 14.6632L10.3989 14.7017C10.6451 14.9022 10.9395 15.0005 11.2296 15C11.5785 15 11.9206 14.8579 12.1649 14.5795C12.3479 14.3712 12.4496 14.1187 12.472 13.8612C12.6219 13.9225 12.7825 13.9556 12.9479 13.9556C12.9757 13.9556 13.0034 13.9547 13.0312 13.9527C13.3669 13.9308 13.674 13.7804 13.895 13.5288C14.0799 13.3186 14.1811 13.0617 14.2016 12.8003C14.3451 12.8563 14.4984 12.8855 14.6556 12.8855C14.6833 12.8855 14.7111 12.8845 14.7388 12.8826C15.0746 12.8607 15.3817 12.7103 15.6026 12.4587C15.8007 12.2334 15.9039 11.9584 15.916 11.6815C16.0323 11.7156 16.1521 11.7336 16.2718 11.7336C16.6212 11.7336 16.9692 11.589 17.2174 11.3068C17.6169 10.8518 17.6286 10.187 17.2782 9.72078C17.8972 9.38791 18.0992 9.0638 18.2671 8.79468C18.4174 8.55379 18.5323 8.36983 18.9683 8.18588L19.0389 8.35231C19.127 8.56011 19.3294 8.68518 19.5421 8.68518C19.6127 8.68518 19.6847 8.67156 19.7538 8.64236L20.9758 8.12553C21.1096 8.06908 21.2137 7.96348 21.2687 7.82819C21.3252 7.69436 21.3242 7.54642 21.2678 7.41259ZM2.66788 7.82868L1.59773 7.1824L4.96926 1.59903L6.03941 2.2453L2.66788 7.82868ZM5.20772 10.5812C5.02717 10.5924 4.85441 10.5345 4.71961 10.4162C4.44076 10.1709 4.41302 9.74463 4.65829 9.46578L5.68415 8.29878C5.81701 8.14743 6.0034 8.07006 6.19076 8.07006C6.34892 8.07006 6.50708 8.12505 6.63507 8.23746C6.76939 8.35572 6.84969 8.51972 6.86137 8.70027C6.87305 8.88033 6.81465 9.05358 6.69639 9.18838L5.67053 10.3559C5.55276 10.4887 5.38827 10.5695 5.20772 10.5812ZM6.6852 11.8251C6.50514 11.8368 6.3314 11.7779 6.19709 11.6601C5.91823 11.4148 5.8905 10.9885 6.13577 10.7097L7.13487 9.57284C7.14363 9.56262 7.15239 9.5524 7.16066 9.54169L7.16163 9.54218C7.27989 9.40787 7.44389 9.32757 7.62444 9.31589C7.8045 9.30372 7.97775 9.36261 8.11255 9.48086C8.39141 9.72614 8.41915 10.1524 8.17387 10.4313L7.14801 11.5988C7.02975 11.7331 6.86575 11.8139 6.6852 11.8251ZM7.6478 12.9351C7.36895 12.6899 7.34121 12.2635 7.58648 11.9847L8.29408 11.1798C8.41233 11.0455 8.57633 10.9652 8.75688 10.9535C8.93694 10.9423 9.11068 11.0002 9.245 11.1185C9.52385 11.3637 9.55159 11.79 9.30631 12.0689L8.59872 12.8738C8.48046 13.0081 8.31646 13.0884 8.13591 13.1001C7.95585 13.1118 7.78212 13.0529 7.6478 12.9351ZM9.10679 14.2004C8.82793 13.9552 8.8002 13.5288 9.04547 13.25L9.15448 13.1259C9.39975 12.847 9.82606 12.8193 10.1049 13.0646C10.3838 13.3099 10.4115 13.7362 10.1662 14.015L10.0572 14.1391C9.81243 14.418 9.38613 14.4457 9.10679 14.2004ZM16.7808 10.9228C16.5356 11.2017 16.1092 11.2294 15.8304 10.9841L13.1231 8.60489C13.002 8.49831 12.8175 8.51048 12.7109 8.63165C12.6044 8.75283 12.6165 8.93727 12.7377 9.04385L15.1218 11.1389C15.1228 11.1399 15.1233 11.1408 15.1243 11.1413C15.3836 11.3871 15.4026 11.8061 15.1666 12.0747C15.0483 12.209 14.8843 12.2893 14.7038 12.301C14.5232 12.3122 14.35 12.2538 14.2157 12.136L12.3216 10.4717C12.2004 10.3651 12.016 10.3773 11.9094 10.4985C11.8028 10.6196 11.815 10.8041 11.9362 10.9107L13.4035 12.2003C13.4035 12.2003 13.4034 12.2008 13.4039 12.2008C13.6755 12.4465 13.6998 12.8699 13.458 13.1449C13.3397 13.2792 13.1757 13.3595 12.9951 13.3712C12.8156 13.3824 12.6413 13.324 12.507 13.2062L11.5206 12.339C11.3994 12.2324 11.215 12.2446 11.1084 12.3657C11.0018 12.4869 11.014 12.6714 11.1352 12.7779L11.6661 13.2442C11.9449 13.4894 11.9727 13.9157 11.7274 14.1946C11.488 14.4671 11.0665 14.491 10.7682 14.2486L10.7356 14.2218C11.0456 13.7109 10.9551 13.0334 10.4903 12.6256C10.301 12.4592 10.0752 12.3604 9.84212 12.3268C10.1906 11.8105 10.1098 11.1014 9.62994 10.6795C9.41533 10.4907 9.14815 10.3831 8.86492 10.3695C9.0114 9.90814 8.8839 9.38207 8.4975 9.04239C8.2459 8.82145 7.92227 8.71146 7.58648 8.73336C7.53879 8.73628 7.49207 8.74212 7.44633 8.7504C7.44633 8.7212 7.44584 8.69151 7.44389 8.66183C7.42199 8.32604 7.27162 8.01896 7.02002 7.79802C6.4993 7.34008 5.70313 7.39166 5.24519 7.91238L5.12402 8.0501C4.83738 7.7328 4.33223 7.42086 3.6991 7.24907L6.19757 3.11154C7.14411 3.73349 8.1038 3.64443 8.82161 3.57776C9.06396 3.55537 9.28831 3.53445 9.45912 3.54807C9.33357 3.65708 9.21823 3.7549 9.10776 3.8386C8.07459 4.62309 8.20307 5.47425 8.31646 6.22515C8.39968 6.77507 8.47803 7.29433 8.13591 7.82624C8.08725 7.90167 8.07606 7.9956 8.10574 8.08076C8.13543 8.16593 8.20259 8.23211 8.28775 8.26082C8.80896 8.43699 9.40121 8.31241 9.9122 7.91871C10.4923 7.47196 10.8407 6.78675 10.7994 6.17308C10.7823 5.92051 10.9259 5.54238 11.1429 5.4139C11.1897 5.38665 11.3284 5.3044 11.5921 5.46597L16.7195 9.97141C16.9984 10.2172 17.0261 10.6435 16.7808 10.9228ZM17.7736 8.4876C17.6086 8.75234 17.4514 9.00346 16.8329 9.29448L11.9605 5.0129C11.9493 5.00317 11.9376 4.99441 11.9255 4.98662C11.4228 4.66397 11.0334 4.8012 10.8461 4.91216C10.3984 5.1769 10.1876 5.77986 10.2168 6.21299C10.2451 6.63102 9.97936 7.13081 9.55645 7.45687C9.3214 7.63791 9.06834 7.73913 8.82696 7.75373C9.05082 7.17899 8.96858 6.63199 8.89412 6.13901C8.78803 5.43531 8.70384 4.87956 9.46107 4.30482C9.62994 4.17683 9.80562 4.02256 9.99152 3.85953C10.3439 3.55099 10.7424 3.20158 11.2875 2.84389C11.8452 2.56893 12.5445 2.73487 13.3528 2.92662C14.366 3.16654 15.5058 3.43663 16.7638 2.96993L18.7425 7.65105C18.1342 7.90897 17.9512 8.20242 17.7736 8.4876ZM19.5635 8.09098L17.0237 2.08325L18.1751 1.59659L20.7149 7.60433L19.5635 8.09098Z" fill="white" stroke="white" stroke-width="0.2"/>
</svg>
