<?xml version="1.0" encoding="utf-8"?>
<!-- Generator: Adobe Illustrator 27.5.0, SVG Export Plug-In . SVG Version: 6.00 Build 0)  -->
<svg version="1.1" xmlns="http://www.w3.org/2000/svg" xmlns:xlink="http://www.w3.org/1999/xlink" x="0px" y="0px"
	 viewBox="0 0 500 500" style="enable-background:new 0 0 500 500;" xml:space="preserve">
<g id="Background_Complete">
	<g>
		<rect y="382.398" style="fill:#EBEBEB;" width="500" height="0.25"/>
		<rect x="416.779" y="398.494" style="fill:#EBEBEB;" width="33.122" height="0.25"/>
		<rect x="322.527" y="401.208" style="fill:#EBEBEB;" width="8.693" height="0.25"/>
		<rect x="396.586" y="389.208" style="fill:#EBEBEB;" width="19.192" height="0.25"/>
		<rect x="52.459" y="390.888" style="fill:#EBEBEB;" width="43.193" height="0.25"/>
		<rect x="104.556" y="390.888" style="fill:#EBEBEB;" width="6.333" height="0.25"/>
		<rect x="131.471" y="395.111" style="fill:#EBEBEB;" width="93.676" height="0.25"/>
		<path style="fill:#EBEBEB;" d="M237.014,337.8H43.915c-3.147,0-5.708-2.561-5.708-5.708V60.66c0-3.147,2.561-5.708,5.708-5.708
			h193.099c3.146,0,5.707,2.561,5.707,5.708v271.432C242.721,335.239,240.16,337.8,237.014,337.8z M43.915,55.203
			c-3.01,0-5.458,2.448-5.458,5.458v271.432c0,3.01,2.448,5.458,5.458,5.458h193.099c3.009,0,5.457-2.448,5.457-5.458V60.66
			c0-3.009-2.448-5.458-5.457-5.458H43.915z"/>
		<path style="fill:#EBEBEB;" d="M453.31,337.8H260.212c-3.147,0-5.707-2.561-5.707-5.708V60.66c0-3.147,2.561-5.708,5.707-5.708
			H453.31c3.148,0,5.708,2.561,5.708,5.708v271.432C459.019,335.239,456.458,337.8,453.31,337.8z M260.212,55.203
			c-3.009,0-5.457,2.448-5.457,5.458v271.432c0,3.01,2.448,5.458,5.457,5.458H453.31c3.01,0,5.458-2.448,5.458-5.458V60.66
			c0-3.009-2.448-5.458-5.458-5.458H260.212z"/>
	</g>
	<g>
		<polygon style="fill:#E0E0E0;" points="54.802,382.703 54.802,333.389 77.562,333.389 77.562,287.656 80.772,287.656 
			80.772,313.869 89.526,313.869 89.526,306.619 105.283,306.619 105.283,281.521 108.201,281.521 108.201,250.846 110.535,250.846 
			110.535,280.963 116.079,280.963 116.079,325.581 126.584,325.581 126.584,280.963 145.55,280.963 145.55,318.696 
			165.462,318.696 165.462,272.963 168.672,272.963 168.672,299.176 177.426,299.176 177.426,291.925 193.182,291.925 
			193.182,266.828 196.1,266.828 196.1,236.153 198.435,236.153 198.435,266.27 203.979,266.27 203.979,310.888 214.484,310.888 
			214.484,266.27 233.45,266.27 233.45,309.429 246.24,309.429 246.24,284.331 249.158,284.331 249.158,253.656 251.493,253.656 
			251.493,283.773 257.037,283.773 257.037,328.391 267.542,328.391 267.542,283.773 286.508,283.773 286.508,328.391 
			295.845,328.391 295.845,333.389 312.203,333.389 312.203,287.656 315.413,287.656 315.413,313.869 324.167,313.869 
			324.167,306.619 339.923,306.619 339.923,281.521 342.842,281.521 342.842,250.846 345.176,250.846 345.176,280.963 
			350.264,280.963 350.264,278.452 369.231,278.452 369.231,280.963 379.735,280.963 379.735,278.452 385.279,278.452 
			385.279,248.335 387.614,248.335 387.614,279.01 390.532,279.01 390.532,304.107 406.289,304.107 406.289,311.358 
			415.043,311.358 415.043,285.145 418.252,285.145 418.252,330.878 441.012,330.878 441.012,382.703 		"/>
		
			<ellipse transform="matrix(0.3827 -0.9239 0.9239 0.3827 97.4325 400.9529)" style="fill:#FAFAFA;" cx="348.75" cy="127.567" rx="27.787" ry="27.787"/>
		<path style="fill:#F0F0F0;" d="M363.165,127.255c0-2.668,2.163-4.83,4.83-4.83c0.482,0,0.947,0.073,1.387,0.204
			c-0.07-0.484-0.108-0.979-0.108-1.483c0-5.649,4.58-10.229,10.229-10.229c0.644,0,1.273,0.063,1.884,0.176
			c1.572-2.573,4.398-4.296,7.634-4.296c4.898,0,8.871,3.935,8.943,8.816c0.05-0.001,0.099-0.007,0.149-0.007
			c4.551,0,8.24,3.689,8.24,8.24c0,4.551-3.689,8.24-8.24,8.24h-30.261l0.006-0.007
			C365.255,132.005,363.165,129.876,363.165,127.255z"/>
		<path style="fill:#F0F0F0;" d="M54.569,203.241c0-2.668,2.163-4.83,4.83-4.83c0.482,0,0.947,0.073,1.387,0.204
			c-0.07-0.484-0.108-0.979-0.108-1.483c0-5.649,4.58-10.229,10.229-10.229c0.644,0,1.273,0.062,1.884,0.176
			c1.572-2.573,4.398-4.296,7.634-4.296c4.898,0,8.871,3.935,8.943,8.816c0.05-0.001,0.099-0.008,0.149-0.008
			c4.551,0,8.24,3.689,8.24,8.24c0,4.551-3.689,8.24-8.24,8.24h-30.26l0.006-0.007C56.659,207.992,54.569,205.863,54.569,203.241z"
			/>
		<path style="fill:#F0F0F0;" d="M216.429,145.527c0-4.221-3.422-7.643-7.643-7.643c-0.763,0-1.499,0.115-2.195,0.324
			c0.111-0.766,0.172-1.549,0.172-2.347c0-8.938-7.246-16.184-16.184-16.184c-1.019,0-2.014,0.099-2.981,0.279
			c-2.488-4.071-6.959-6.798-12.079-6.798c-7.749,0-14.035,6.227-14.151,13.949c-0.079-0.002-0.156-0.012-0.236-0.012
			c-7.2,0-13.037,5.837-13.037,13.037c0,7.201,5.837,13.038,13.037,13.038h47.879l-0.01-0.011
			C213.122,153.044,216.429,149.675,216.429,145.527z"/>
		<path style="fill:#F0F0F0;" d="M353.665,211.135c0-5.08-4.118-9.197-9.197-9.197c-0.918,0-1.804,0.139-2.641,0.389
			c0.134-0.922,0.206-1.864,0.206-2.824c0-10.757-8.72-19.477-19.477-19.477c-1.226,0-2.424,0.119-3.588,0.336
			c-2.994-4.899-8.375-8.18-14.536-8.18c-9.326,0-16.891,7.493-17.029,16.786c-0.095-0.002-0.188-0.014-0.284-0.014
			c-8.665,0-15.689,7.024-15.689,15.689c0,8.665,7.024,15.689,15.689,15.689h57.618l-0.012-0.013
			C349.685,220.182,353.665,216.128,353.665,211.135z"/>
		<path style="fill:#F0F0F0;" d="M302.556,141.726c0-1.658,1.345-3.003,3.003-3.003c0.3,0,0.589,0.045,0.862,0.127
			c-0.044-0.301-0.067-0.609-0.067-0.922c0-3.512,2.847-6.359,6.359-6.359c0.4,0,0.792,0.039,1.171,0.11
			c0.977-1.6,2.734-2.671,4.746-2.671c3.045,0,5.515,2.447,5.56,5.481c0.031,0,0.061-0.005,0.093-0.005
			c2.829,0,5.123,2.294,5.123,5.123c0,2.829-2.294,5.123-5.123,5.123h-18.813l0.004-0.004
			C303.856,144.679,302.556,143.356,302.556,141.726z"/>
		<path style="fill:#F0F0F0;" d="M101.245,109.325c0-1.659-1.345-3.003-3.003-3.003c-0.3,0-0.589,0.045-0.862,0.127
			c0.044-0.301,0.067-0.609,0.067-0.922c0-3.512-2.847-6.359-6.359-6.359c-0.4,0-0.792,0.039-1.172,0.11
			c-0.977-1.6-2.734-2.671-4.746-2.671c-3.045,0-5.515,2.447-5.56,5.481c-0.031-0.001-0.061-0.005-0.093-0.005
			c-2.829,0-5.123,2.294-5.123,5.123c0,2.829,2.293,5.123,5.123,5.123H98.33l-0.004-0.004
			C99.946,112.278,101.245,110.955,101.245,109.325z"/>
	</g>
</g>
<g id="Background_Simple" style="display:none;">
	<g style="display:inline;">
		<path style="fill:#407BFF;" d="M82.355,130.541c27.919-59.449,127.059-51.062,165.317-9.255
			c38.258,41.806,50.696,68.599,85.208,52.983c34.512-15.616,78.518-11.44,81.042,38.164s-37.913,108.263-102.09,125.615
			c-64.177,17.352-64.161,78.759-149.1,66.368c-46.31-6.756-47.365-56.86-40.825-98.301S49.977,199.484,82.355,130.541z"/>
		<path style="opacity:0.9;fill:#FFFFFF;" d="M82.355,130.541c27.919-59.449,127.059-51.062,165.317-9.255
			c38.258,41.806,50.696,68.599,85.208,52.983c34.512-15.616,78.518-11.44,81.042,38.164s-37.913,108.263-102.09,125.615
			c-64.177,17.352-64.161,78.759-149.1,66.368c-46.31-6.756-47.365-56.86-40.825-98.301S49.977,199.484,82.355,130.541z"/>
	</g>
</g>
<g id="Shadow_1_">
	<path id="_x3C_Path_x3E__359_" style="fill:#F5F5F5;" d="M291.948,461.337c0,3.451-18.781,6.249-41.948,6.249
		s-41.948-2.798-41.948-6.249c0-3.451,18.781-6.249,41.948-6.249S291.948,457.886,291.948,461.337z"/>
</g>
<g id="Arrow">
	<polygon style="fill:#407BFF;" points="190.487,403.694 236.779,341.067 238.815,338.313 239.15,334.226 251.088,188.803 
		297.632,185.588 308.275,184.852 312.725,172.164 351.041,62.901 294.099,49.14 279.818,152.768 235.693,160.408 223.683,162.487 
		222.791,173.837 210.635,328.615 173.209,391.361 166.657,380.635 164.972,422.538 203.591,406.187 	"/>
</g>
<g id="Character">
	<g>
		<g>
			<path style="fill:#EEC1BB;" d="M251.216,282.883l9.812,9.934l6.108,6.189c0,0,34.752-40.964,49.52-61.136
				c2.139-2.92,2.099-7.553,2.22-9.721c0.265-4.737,0.703-10.283,1.264-16.214c2.472-26.38,7.213-60.551,8.81-67.01l-5.668-0.933
				c0,0-9.747,19.183-16.231,41.682c-3.665,12.71-6.292,26.474-5.537,38.442c0,0,0.338,1.716-0.892,2.844
				c-34.777,26.58-45.137,42.628-48.19,50.335C250.935,281.104,251.216,282.883,251.216,282.883z"/>
			<path style="fill:#263238;" d="M318.686,135.549l1.555-0.376l0.898,1.814l4.58-3.573l13.037-3.168c0,0,2.58,1.58-3.225,4.75
				c-0.264,0.145-0.531,0.324-0.798,0.55c-2.934,2.357-6.37,8.744-6.37,8.744l-7.153,1.738c0,0-0.337-0.298-0.837-0.889
				C319.209,143.757,317.057,140.782,318.686,135.549z"/>
			<path style="fill:#EEC1BB;" d="M320.373,145.141c-0.003-0.011-0.005-0.022-0.005-0.022c1.2,0.823,4.375-4.845,7.14-7.184
				c2.471-2.083,5.479-3.47,7.225-2.388c-2.934,2.357-6.492,10.4-6.492,10.4l-5.752,1.398
				C322.489,147.344,320.873,145.732,320.373,145.141z"/>
			<path style="opacity:0.2;" d="M252.433,277.292c2.891,5.234,5.826,10.546,8.595,15.525l6.108,6.189
				c0,0,34.752-40.964,49.52-61.136c2.139-2.92,2.099-7.553,2.22-9.721c0.265-4.737,0.703-10.283,1.264-16.214
				c-6.384-8.729-10.588-18.838-13.088-26.262c-3.665,12.71-6.292,26.474-5.537,38.442c0,0,0.338,1.716-0.892,2.844
				C265.846,253.537,255.486,269.585,252.433,277.292z"/>
		</g>
		<g>
			<path style="fill:#263238;" d="M285.982,187.359l0.952-1.286l1.853,0.816l1.222-5.679l7.97-10.792c0,0,2.993-0.442,0.572,5.713
				c-0.11,0.28-0.199,0.589-0.259,0.934c-0.739,3.69,0.721,10.795,0.721,10.795l-4.373,5.922c0,0-0.449-0.012-1.212-0.145
				C291.647,193.32,288.087,192.419,285.982,187.359z"/>
			<path style="fill:#EEC1BB;" d="M293.427,193.636c-0.009-0.007-0.018-0.013-0.018-0.013c1.449-0.138,0.249-6.523,0.871-10.091
				c0.56-3.183,1.979-6.176,4.012-6.466c-0.739,3.69,1.689,12.143,1.689,12.143l-3.517,4.762
				C296.464,193.97,294.19,193.769,293.427,193.636z"/>
			<path style="fill:#EEC1BB;" d="M322.633,257.721c-18.293-25.924-27.717-66.834-27.717-66.834l4.955-2.914
				c3.569,7.317,30.189,49.565,45.645,70.315c0.24,0.321,0.919,1.748,1.616,3.27c1.146,2.503,1.042,5.405-0.295,7.811
				c-0.015,0.026-0.029,0.053-0.044,0.079c-0.833,1.502-2.085,2.718-3.614,3.499c-23.108,11.801-69.04,31.774-69.04,31.774
				l-7.168-21.496C266.972,283.224,271.092,269.812,322.633,257.721z"/>
		</g>
		<g>
			<path style="fill:#263238;" d="M154.954,238.725c2.642,0.146,12.635-16.889,23.921-1.624s-0.935,16.731,17.114,20.373
				c18.049,3.641-1.534,20.688-2.301,33.022c-1.379,22.153-33.037,18.837-28.648,2.775c4.389-16.062,4.893-19.798-7.917-22.728
				C144.312,267.612,136.606,237.708,154.954,238.725z"/>
			<path style="fill:none;stroke:#263238;stroke-width:0.5;stroke-linecap:round;stroke-linejoin:round;stroke-miterlimit:10;" d="
				M192.985,295.159c0,0-1.399-7.067,5.498-13.25c6.897-6.182,12.965-15.155,7.913-22.211c-5.052-7.057,0.731-10.341,0.731-10.341"
				/>
			<path style="fill:none;stroke:#263238;stroke-width:0.5;stroke-linecap:round;stroke-linejoin:round;stroke-miterlimit:10;" d="
				M191.243,257.842c-4.223-3.109-7.285-11.039-4.02-22.033c3.264-10.994-11.022-11.433-15.159-8.22"/>
			<path style="fill:none;stroke:#263238;stroke-width:0.5;stroke-linecap:round;stroke-linejoin:round;stroke-miterlimit:10;" d="
				M169.481,304.409c0,0-9.997,0.854-6.159-9.341c3.838-10.195,6.33-20.935-1.846-21.99c-8.176-1.055-16.838-3.408-16.747-10.549"/>
		</g>
		<g>
			<path style="fill:#EBC0BB;" d="M195.736,318.591c-1.104,0.886-2.082,1.628-3.148,2.376c-1.046,0.745-2.104,1.465-3.17,2.172
				c-2.133,1.412-4.347,2.695-6.581,3.946c-4.486,2.472-9.176,4.639-14.129,6.257l-0.927,0.305
				c-0.333,0.104-0.512,0.185-1.181,0.357c-1.126,0.292-2.498,0.309-3.723-0.022c-1.243-0.317-2.244-0.948-3.028-1.588
				c-0.786-0.651-1.376-1.338-1.871-2.012c-0.976-1.354-1.619-2.671-2.148-3.979c-0.528-1.306-0.933-2.591-1.287-3.87
				c-1.313-5.137-1.902-10.11-2.027-15.242l4.253-0.463c0.536,2.301,1.129,4.679,1.79,6.965c0.639,2.299,1.377,4.558,2.241,6.674
				c0.826,2.091,1.872,4.163,2.957,5.399c0.527,0.619,1.039,0.795,0.948,0.689c-0.029-0.04-0.131-0.036-0.07-0.075l1.378-0.557
				c4.319-1.723,8.509-3.902,12.6-6.27c2.04-1.197,4.032-2.482,6.012-3.78c1.958-1.281,3.957-2.715,5.713-4.024L195.736,318.591z"/>
		</g>
		<g>
			<path style="fill:#407BFF;" d="M198.504,315.784c0.195,3.587-12.747,10.195-12.747,10.195l-9.094-7.203
				c0,0,11.04-13.099,15.493-11.689C196.794,308.557,198.219,310.549,198.504,315.784z"/>
			<path style="opacity:0.5;fill:#FFFFFF;" d="M176.662,318.773l9.1,7.21c0,0,4.6-2.35,8.27-5.01c2.49-1.8,4.55-3.74,4.47-5.19
				c-0.07-1.22-0.19-2.26-0.41-3.16c-0.71-2.97-2.38-4.41-5.94-5.54C187.702,305.673,176.662,318.773,176.662,318.773z"/>
			<path style="opacity:0.2;" d="M190.292,316.063c0,0,0.73,2.78,3.74,4.91c2.49-1.8,4.55-3.74,4.47-5.19
				c-0.07-1.22-0.19-2.26-0.41-3.16C195.792,313.273,193.182,314.383,190.292,316.063z"/>
		</g>
		<g>
			<path style="fill:#EEC1BB;" d="M157.122,309.781l2.464-10.02l-7.86,3.465c0,0-0.477,5.403,2.461,7.326L157.122,309.781z"/>
			<polygon style="fill:#EEC1BB;" points="157.983,293.686 152.167,296.442 151.727,303.226 159.587,299.761 			"/>
		</g>
		<g>
			<path style="fill:#407BFF;" d="M249.934,274.109c0,0-14.562,12.288-40.861,6.75c0,0-13.832,17.604-21.846,35.406
				c0,0,26.241,11.956,69.387-8.066L249.934,274.109z"/>
			<path style="opacity:0.5;fill:#FFFFFF;" d="M187.222,316.263c0,0,26.24,11.96,69.39-8.06l-6.68-34.09c0,0-6.55,5.52-18.79,7.49
				c-6.01,0.97-13.4,1.08-22.07-0.74c0,0-0.63,0.8-1.7,2.23C203.442,288.373,193.532,302.263,187.222,316.263z"/>
		</g>
		<g>
			<path style="fill:#407BFF;" d="M197.182,310.963c0.48,0.69,1.1,1.25,1.81,1.69c2.3,1.44,5.59,1.67,8.39,1.51
				c3.05-0.16,5.51-0.77,5.51-0.77s2.21,1.1,4.69,1.56h0.01c1.75,0.32,3.63,0.33,4.94-0.6c2.97-2.1,0.54-4.67-5.01-3.64
				c-0.33,0.07-0.68,0.14-1.04,0.22c0.4-0.17,2.14-0.91,3.86-2.33c1.14-0.94,2.28-2.18,2.98-3.74l-2.24-2.29
				c0,0-0.22,2.88-2.94,5.76c-0.6,0.64-1.32,1.28-2.2,1.89c0,0-0.07-8.71,2.63-12.61l-2.7,0.65c0,0-1.22,3.8-1.25,7.89
				c-0.28-3.08-0.51-7.07-1.65-7.15c-0.16-0.01-0.3,0-0.44,0.02c-2.24,0.37-1.43,5.17-0.68,9.22c-1.17-4.38-3.4-12.75-7.12-14.13
				C198.132,291.673,195.192,308.083,197.182,310.963z M212.592,301.243c0.45,0.01,0.69,1.23,0.81,2.75
				c0.19,2.45,0.08,5.64,0.08,5.64s-0.44-1.76-0.8-3.67C212.262,303.703,211.942,301.233,212.592,301.243z M215.652,312.703
				c0,0,6.35-0.99,6.27,0C221.842,313.693,218.922,314.583,215.652,312.703z"/>
			<path style="opacity:0.1;" d="M214.082,311.903c0.11-0.06,1.02-0.57,2.66-0.94c0.25-0.06,0.51-0.14,0.78-0.25
				c-0.35,0.07-0.72,0.15-1.1,0.24c0.23-0.09,2.09-0.84,3.92-2.35l-2.2-0.27c-0.6,0.64-1.32,1.28-2.2,1.89
				c0,0.03-0.01,0.58-0.68,0.84c0,0,0.54-3.31-0.64-4.91C214.622,306.153,214.712,310.173,214.082,311.903z"/>
			<path style="opacity:0.1;" d="M211.852,308.243l0.83-2.28c-0.42-2.26-0.74-4.73-0.09-4.72c0.45,0.01,0.69,1.23,0.81,2.75
				l0.68-1.87c-0.45-1.1-0.97-2.14-1.55-3.1C210.292,299.393,211.102,304.193,211.852,308.243z"/>
			<path style="opacity:0.1;" d="M197.182,310.963c0.48,0.69,1.1,1.25,1.81,1.69l1.29-1.23c2.16,0.44,4.94,1.68,7.1,2.74
				c3.05-0.16,5.51-0.77,5.51-0.77s2.21,1.1,4.69,1.56c-4.39-1.27-4.07-3.05-4.07-3.05c-1.15-0.85-1.66-3.66-1.66-3.66
				c-1.17-4.38-3.4-12.75-7.12-14.13C198.132,291.673,195.192,308.083,197.182,310.963z"/>
		</g>
		<g>
			<path style="fill:#407BFF;" d="M212.542,302.119c0,0-1.286-9.586-14.341-14.237l-5.277,17.246l-0.558,11.714l7.417-5.885
				l12.758,1.746l-3.47-8.505L212.542,302.119z"/>
			<path style="opacity:0.6;fill:#FFFFFF;" d="M212.542,302.119c0,0-1.286-9.586-14.341-14.237l-5.277,17.246l-0.558,11.714
				l7.417-5.885l12.758,1.746l-3.47-8.505L212.542,302.119z"/>
		</g>
		<g>
			<path style="fill:#EEC1BB;" d="M184.717,300.063c5.107,0.001,14.308-0.803,16.916-4.887c0,0,5.253,0.367,7.044,9.507
				c1.969,10.05-4.048,5.78-4.048,5.78c-2.385-5.228-6.426-4.289-10.061-2.585L184.717,300.063z"/>
			<path style="opacity:0.2;" d="M188.736,303.248l5.827,4.626c0.859-0.406,1.742-0.764,2.621-1.003
				c-0.713-2.036-3.577-4.464-5.815-4.256C190.253,302.718,189.21,302.97,188.736,303.248z"/>
		</g>
		<g>
			<path style="fill:#EEC1BB;" d="M187.49,290.294c5.78,6.072,8.356,8.518,8.626,14.537c0.406,9.054-8.316,14.826-15.793,10.604
				c-6.731-3.8-15.053-13.091-11.917-21.358C171.494,285.932,181.71,284.222,187.49,290.294z"/>
			<path style="fill:#263238;" d="M166.333,299.927c1.693,4.39,28.225-10.186,19.304-12.962
				C176.716,284.19,161.913,288.464,166.333,299.927z"/>
			<path style="fill:#263238;" d="M181.464,293.57c2.97,2.72,9.778,0.905,9.778,0.905s-0.467-8.347-5.003-6.255
				C181.703,290.311,181.464,293.57,181.464,293.57z"/>
			<path style="fill:#263238;" d="M179.738,302.035c0.499,0.464,0.658,1.104,0.355,1.43c-0.303,0.326-0.953,0.215-1.453-0.249
				c-0.499-0.464-0.658-1.104-0.355-1.43C178.589,301.46,179.239,301.572,179.738,302.035z"/>
			<path style="fill:#263238;" d="M173.522,308.238l-1.459,0.878C172.063,309.116,173.571,309.371,173.522,308.238z"/>
			<path style="fill:#D4827D;" d="M177.309,306.32c0,0,1.362,2.843,1.533,4.739c1.227-0.087,1.987-1.469,1.987-1.469L177.309,306.32
				z"/>
			<path style="fill:#EEC1BB;" d="M194.654,293.855c0.791,1.547,0.794,3.316,0.333,4.667c-0.694,2.033-2.805,1.839-4.09,0.261
				c-1.157-1.421-2.189-4.191-0.782-5.744C191.501,291.508,193.749,292.086,194.654,293.855z"/>
			<path style="fill:#263238;" d="M176.14,299.853c0.059-0.158,0.214-0.267,0.392-0.26c1.85,0.077,3.317-1.802,3.331-1.821
				c0.135-0.175,0.386-0.208,0.561-0.073c0.175,0.134,0.209,0.385,0.073,0.561c-0.07,0.091-1.739,2.226-3.998,2.132
				c-0.221-0.009-0.392-0.196-0.383-0.416C176.117,299.933,176.126,299.891,176.14,299.853z"/>
			<path style="fill:#263238;" d="M171.387,303.613c0.099-0.094,0.243-0.135,0.385-0.096c0.213,0.06,0.337,0.281,0.277,0.493
				c-0.598,2.13-2.355,2.704-2.429,2.727c-0.211,0.066-0.435-0.051-0.502-0.262c-0.066-0.21,0.05-0.434,0.26-0.501l0,0
				c0.058-0.019,1.422-0.479,1.9-2.181C171.298,303.723,171.336,303.661,171.387,303.613z"/>
			<path style="fill:#263238;" d="M178.447,301.668l-1.459,0.878C176.988,302.546,178.496,302.801,178.447,301.668z"/>
			<g>
				<path style="fill:#263238;" d="M186.633,310.959c-0.118,0.155-0.259,0.308-0.4,0.46l-3.869-0.642c0,0,0.059-0.224,0.18-0.566
					c0.381-1.171,1.387-3.722,2.934-4.02c0.142-0.024,0.325-0.039,0.536-0.034c0.572,0.022,1.32,0.199,1.781,0.663
					C188.468,307.484,188.544,308.744,186.633,310.959z"/>
				<path style="fill:#FFFFFF;" d="M186.014,306.158l-2.995,4.062l-0.474-0.008c0.381-1.171,1.387-3.722,2.934-4.02
					C185.62,306.167,185.803,306.152,186.014,306.158z"/>
				<path style="fill:#DE5753;" d="M186.633,310.959c-1.083-1.194,0.224-3.111,1.162-4.138
					C188.468,307.484,188.544,308.744,186.633,310.959z"/>
			</g>
			<path style="fill:#263238;" d="M173.01,308.546c0,0-0.433-0.817,0-1.345c0.433-0.527,1.85,0,1.85,0s-1.885,0.096-1.338,1.037
				l-0.376,0.451L173.01,308.546z"/>
		</g>
		<path style="fill:#EEC1BB;" d="M217.85,235.152l-8.654-2.895l7.333-4.472c0,0,4.707,2.695,4.608,6.205L217.85,235.152z"/>
		<polygon style="fill:#EEC1BB;" points="205.281,226.332 211.624,222.921 216.53,227.785 209.197,232.257 		"/>
		<path style="opacity:0.2;" d="M207.372,283.093c1.31,2.59,4.09,4.85,7.8,5.47c8.42,1.41,13.41-3.39,15.97-6.96
			c-6.01,0.97-13.4,1.08-22.07-0.74C209.072,280.863,208.442,281.663,207.372,283.093z"/>
		<g>
			<path style="fill:#EBC0BB;" d="M210.49,282.516c0.575-0.783,1.243-1.761,1.858-2.662c0.624-0.923,1.228-1.865,1.812-2.816
				c1.163-1.906,2.308-3.821,3.304-5.792c1.99-3.929,3.652-8,4.388-12.011c0.074-0.473,0.173-1.091,0.191-1.286
				c0.02-0.355,0.021-0.79-0.015-1.272c-0.06-0.961-0.204-2.029-0.389-3.105c-0.391-2.162-0.879-4.4-1.445-6.63
				c-0.533-2.242-1.125-4.493-1.754-6.738l-1.862-6.755l3.966-1.603c2.244,4.267,4.157,8.617,5.92,13.129
				c0.846,2.267,1.66,4.564,2.31,7c0.324,1.225,0.626,2.474,0.834,3.856c0.102,0.688,0.171,1.432,0.188,2.255
				c-0.006,0.985-0.089,1.535-0.144,2.232c-0.298,2.668-0.902,5.221-1.692,7.663c-0.775,2.448-1.751,4.787-2.834,7.046
				c-1.083,2.26-2.254,4.456-3.552,6.571c-0.652,1.056-1.322,2.097-2.02,3.126c-0.707,1.049-1.393,2.002-2.247,3.094L210.49,282.516
				z"/>
		</g>
		<g>
			<path style="fill:#407BFF;" d="M218.291,292.417c3.483-0.88,8.172-12.503,8.172-12.503l-12.863-10.16
				c0,0-2.031,6.403-6.822,14.144C204.218,288.035,214.316,293.421,218.291,292.417z"/>
			<path style="opacity:0.5;fill:#FFFFFF;" d="M218.291,292.417c3.483-0.88,8.172-12.503,8.172-12.503l-12.863-10.16
				c0,0-2.031,6.403-6.822,14.144C204.218,288.035,214.316,293.421,218.291,292.417z"/>
		</g>
		<path style="fill:#263238;" d="M244.262,277.543l8.76,32.26l3.59-1.6c27.09,1.1,51.5-16.81,51.5-16.81
			c-0.05-1.39-0.15-2.78-0.28-4.15c-4.98,1.71-11.14,2.32-11.14,2.32c4.87-5.43,7.2-13.04,8.16-17.06
			c-10.16-33.35-40.26-57.18-40.26-57.18c0,27.16-16.43,58.79-16.43,58.79L244.262,277.543z"/>
	</g>
</g>
<g id="Bank_notes">
	<g>
		<path style="fill:#407BFF;" d="M222.292,193.995c-9.791-6.132-17.635-14.923-22.616-25.346c4.399-3.925,8.798-7.851,13.197-11.776
			c4.981,10.424,12.826,19.215,22.616,25.347C231.09,186.145,226.691,190.07,222.292,193.995z"/>
		<path style="opacity:0.3;fill:#FFFFFF;enable-background:new    ;" d="M222.292,193.995c-9.791-6.132-17.635-14.923-22.616-25.346
			c4.399-3.925,8.798-7.851,13.197-11.776c4.981,10.424,12.826,19.215,22.616,25.347C231.09,186.145,226.691,190.07,222.292,193.995
			z"/>
		<g>
			<path style="opacity:0.1;enable-background:new    ;" d="M215.035,177.519c-0.443,0.395-0.885,0.79-1.328,1.185
				c0.574,0.479,1.046,0.481,1.369,0.195C215.443,178.57,215.314,178.091,215.035,177.519z"/>
			<path style="opacity:0.1;enable-background:new    ;" d="M215.54,174.578c-0.359,0.322-0.245,0.806,0.012,1.364
				c0.445-0.397,0.89-0.794,1.336-1.192C216.334,174.277,215.872,174.283,215.54,174.578z"/>
			<path style="opacity:0.2;enable-background:new    ;" d="M231.839,180.948c-7.493-5.314-13.688-12.256-18.117-20.304
				c-1,0.892-2.351,0.651-2.96-0.572c-2.694,2.403-5.387,4.807-8.081,7.21c0.609,1.224,0.338,2.914-0.665,3.806
				c4.429,8.048,10.624,14.99,18.117,20.304c1.001-0.895,2.711-0.972,3.857-0.229c2.694-2.403,5.387-4.806,8.08-7.21
				C230.924,183.209,230.838,181.84,231.839,180.948z M212.889,179.434c-0.28,0.25-0.56,0.5-0.84,0.749
				c-0.184-0.207-0.367-0.416-0.549-0.626c0.278-0.248,0.555-0.495,0.833-0.743c-0.606-0.791-0.976-1.757-0.966-2.472
				c0.348-0.106,0.695-0.213,1.044-0.32c0.012,0.655,0.28,1.438,0.732,2.068c0.5-0.446,1-0.893,1.501-1.339
				c-0.536-1.032-1.021-2.218,0.022-3.15c0.768-0.685,1.894-0.682,3.039,0.418c0.283-0.252,0.565-0.504,0.848-0.757
				c0.181,0.21,0.364,0.419,0.549,0.626c-0.277,0.248-0.555,0.496-0.833,0.743c0.469,0.59,0.821,1.295,0.938,1.927
				c-0.348,0.125-0.696,0.249-1.044,0.373c-0.136-0.601-0.392-1.134-0.705-1.577c-0.505,0.451-1.01,0.902-1.516,1.352
				c0.544,1.026,1.133,2.147,0.091,3.077C215.272,180.468,214.071,180.517,212.889,179.434z"/>
		</g>
	</g>
	<g>
		<path style="fill:#407BFF;" d="M140.481,391.992c-9.791-6.132-17.635-14.923-22.616-25.346c4.399-3.925,8.798-7.851,13.198-11.776
			c4.981,10.424,12.826,19.215,22.616,25.346C149.28,384.141,144.881,388.067,140.481,391.992z"/>
		<path style="opacity:0.3;fill:#FFFFFF;enable-background:new    ;" d="M140.481,391.992c-9.791-6.132-17.635-14.923-22.616-25.346
			c4.399-3.925,8.798-7.851,13.198-11.776c4.981,10.424,12.826,19.215,22.616,25.346
			C149.28,384.141,144.881,388.067,140.481,391.992z"/>
		<g>
			<path style="opacity:0.1;enable-background:new    ;" d="M133.225,375.515c-0.443,0.395-0.885,0.79-1.328,1.185
				c0.574,0.479,1.046,0.481,1.369,0.195C133.633,376.567,133.504,376.087,133.225,375.515z"/>
			<path style="opacity:0.1;enable-background:new    ;" d="M133.73,372.574c-0.359,0.322-0.245,0.806,0.012,1.364
				c0.445-0.397,0.89-0.794,1.336-1.192C134.523,372.274,134.062,372.279,133.73,372.574z"/>
			<path style="opacity:0.2;enable-background:new    ;" d="M150.029,378.945c-7.493-5.314-13.688-12.256-18.117-20.304
				c-1,0.892-2.351,0.651-2.96-0.572c-2.693,2.403-5.387,4.807-8.08,7.21c0.609,1.224,0.338,2.914-0.665,3.806
				c4.429,8.048,10.624,14.99,18.117,20.304c1.001-0.895,2.711-0.972,3.857-0.229c2.694-2.403,5.387-4.806,8.08-7.21
				C149.113,381.205,149.028,379.837,150.029,378.945z M131.079,377.43c-0.28,0.25-0.56,0.5-0.84,0.75
				c-0.184-0.208-0.367-0.416-0.549-0.626c0.278-0.248,0.555-0.495,0.833-0.743c-0.606-0.791-0.976-1.757-0.966-2.472
				c0.348-0.106,0.695-0.213,1.044-0.32c0.012,0.655,0.28,1.438,0.732,2.068c0.5-0.446,1-0.893,1.5-1.339
				c-0.536-1.032-1.021-2.218,0.023-3.15c0.768-0.685,1.894-0.682,3.039,0.418c0.283-0.252,0.565-0.504,0.848-0.757
				c0.182,0.21,0.364,0.419,0.549,0.626c-0.277,0.248-0.555,0.496-0.833,0.743c0.469,0.59,0.821,1.295,0.938,1.927
				c-0.348,0.125-0.696,0.249-1.044,0.373c-0.136-0.601-0.391-1.134-0.704-1.577c-0.505,0.451-1.01,0.902-1.516,1.352
				c0.544,1.026,1.133,2.147,0.091,3.077C133.462,378.464,132.261,378.513,131.079,377.43z"/>
		</g>
	</g>
	<g>
		<path style="fill:#407BFF;" d="M365.122,288.625c-10.958,3.659-22.731,4.125-33.943,1.343c-0.233-5.891-0.466-11.782-0.699-17.674
			c11.213,2.782,22.986,2.316,33.943-1.343C364.656,276.843,364.889,282.734,365.122,288.625z"/>
		<path style="opacity:0.3;fill:#FFFFFF;enable-background:new    ;" d="M365.122,288.625c-10.958,3.659-22.731,4.125-33.943,1.343
			c-0.233-5.891-0.466-11.782-0.699-17.674c11.213,2.782,22.986,2.316,33.943-1.343
			C364.656,276.843,364.889,282.734,365.122,288.625z"/>
		<g>
			<path style="opacity:0.1;enable-background:new    ;" d="M347.791,283.751c0.024,0.593,0.047,1.186,0.07,1.779
				c0.735-0.139,1.037-0.502,1.021-0.932C348.862,284.104,348.409,283.899,347.791,283.751z"/>
			<path style="opacity:0.1;enable-background:new    ;" d="M345.842,281.491c0.021,0.482,0.466,0.701,1.06,0.858
				c-0.024-0.596-0.047-1.192-0.071-1.789C346.114,280.688,345.825,281.048,345.842,281.491z"/>
			<path style="opacity:0.2;enable-background:new    ;" d="M361.121,272.961c-8.866,2.405-18.162,2.773-27.191,1.076
				c0.053,1.339-0.992,2.229-2.323,1.921c0.143,3.607,0.285,7.214,0.428,10.821c1.332,0.308,2.464,1.592,2.515,2.933
				c9.028,1.698,18.325,1.33,27.191-1.076c-0.054-1.341,0.974-2.711,2.276-3.123c-0.143-3.607-0.285-7.214-0.428-10.821
				C362.284,275.104,361.173,274.301,361.121,272.961z M347.904,286.625c0.015,0.375,0.03,0.75,0.045,1.125
				c-0.277,0.01-0.555,0.019-0.832,0.025c-0.015-0.372-0.029-0.743-0.044-1.115c-0.995-0.035-1.977-0.364-2.522-0.826
				c0.139-0.336,0.278-0.672,0.417-1.009c0.514,0.407,1.288,0.698,2.062,0.75c-0.026-0.67-0.053-1.34-0.079-2.009
				c-1.138-0.242-2.362-0.622-2.417-2.02c-0.041-1.028,0.678-1.896,2.255-2.08c-0.015-0.379-0.03-0.757-0.045-1.135
				c0.277-0.007,0.555-0.015,0.832-0.025c0.015,0.372,0.03,0.743,0.044,1.115c0.754,0.013,1.522,0.189,2.084,0.501
				c-0.125,0.348-0.25,0.696-0.376,1.043c-0.55-0.277-1.124-0.419-1.665-0.459c0.027,0.677,0.054,1.353,0.08,2.03
				c1.137,0.232,2.377,0.49,2.433,1.886C350.217,285.443,349.492,286.401,347.904,286.625z"/>
		</g>
	</g>
	<g>
		<path style="fill:#407BFF;" d="M138.405,253.928c-11.605,1.492-22.267,7.168-29.986,15.962c-2.77-5.204-5.541-10.409-8.311-15.613
			c7.718-8.794,18.38-14.47,29.986-15.962C132.864,243.52,135.635,248.724,138.405,253.928z"/>
		<path style="opacity:0.3;fill:#FFFFFF;enable-background:new    ;" d="M138.405,253.928c-11.605,1.492-22.267,7.168-29.986,15.962
			c-2.77-5.204-5.541-10.409-8.311-15.613c7.718-8.794,18.38-14.47,29.986-15.962C132.864,243.52,135.635,248.724,138.405,253.928z"
			/>
		<g>
			<path style="opacity:0.1;enable-background:new    ;" d="M118.084,252.2c0.279,0.524,0.558,1.047,0.836,1.571
				c0.606-0.449,0.732-0.891,0.527-1.273C119.216,252.064,118.705,252.061,118.084,252.2z"/>
			<path style="opacity:0.1;enable-background:new    ;" d="M115.371,251.084c0.227,0.426,0.708,0.397,1.307,0.258
				c-0.281-0.527-0.561-1.053-0.841-1.58C115.257,250.215,115.163,250.694,115.371,251.084z"/>
			<path style="opacity:0.2;enable-background:new    ;" d="M127.081,239.777c-9.094,1.856-17.459,6.309-24.077,12.817
				c0.63,1.185,0.338,2.922-0.594,3.942c1.696,3.186,3.393,6.373,5.089,9.56c0.934-1.021,2.245-0.836,2.877,0.346
				c6.618-6.508,14.983-10.961,24.077-12.817c-0.63-1.183-0.049-2.375,1.32-2.58c-1.697-3.186-3.393-6.373-5.089-9.559
				C129.314,241.69,127.712,240.961,127.081,239.777z M119.436,254.739c0.176,0.331,0.353,0.663,0.529,0.994
				c-0.246,0.132-0.491,0.266-0.735,0.402c-0.175-0.328-0.35-0.657-0.524-0.985c-0.904,0.435-1.885,0.658-2.547,0.542
				c-0.029-0.38-0.058-0.761-0.087-1.14c0.614,0.092,1.41-0.044,2.123-0.361c-0.315-0.591-0.63-1.183-0.945-1.775
				c-1.12,0.311-2.324,0.638-2.979-0.596c-0.481-0.9-0.267-2.111,1.051-3.026c-0.178-0.334-0.356-0.669-0.534-1.003
				c0.244-0.136,0.489-0.27,0.735-0.402c0.175,0.328,0.35,0.657,0.525,0.985c0.686-0.323,1.477-0.471,2.139-0.4
				c0.033,0.36,0.067,0.72,0.1,1.08c-0.632-0.036-1.223,0.076-1.728,0.279c0.318,0.598,0.636,1.195,0.954,1.793
				c1.125-0.299,2.409-0.519,3.067,0.715C121.064,252.751,120.777,253.843,119.436,254.739z"/>
		</g>
	</g>
	<g>
		<path style="fill:#407BFF;" d="M389.338,127.393c-11.605,1.492-22.267,7.168-29.986,15.962c-2.77-5.204-5.541-10.409-8.311-15.613
			c7.718-8.794,18.38-14.47,29.986-15.962C383.797,116.984,386.568,122.188,389.338,127.393z"/>
		<path style="opacity:0.3;fill:#FFFFFF;enable-background:new    ;" d="M389.338,127.393c-11.605,1.492-22.267,7.168-29.986,15.962
			c-2.77-5.204-5.541-10.409-8.311-15.613c7.718-8.794,18.38-14.47,29.986-15.962C383.797,116.984,386.568,122.188,389.338,127.393z
			"/>
		<g>
			<path style="opacity:0.1;enable-background:new    ;" d="M369.017,125.665c0.279,0.524,0.557,1.047,0.836,1.571
				c0.606-0.449,0.732-0.891,0.527-1.273C370.149,125.528,369.638,125.526,369.017,125.665z"/>
			<path style="opacity:0.1;enable-background:new    ;" d="M366.304,124.548c0.227,0.426,0.708,0.398,1.307,0.259
				c-0.281-0.527-0.561-1.053-0.841-1.58C366.19,123.679,366.096,124.158,366.304,124.548z"/>
			<path style="opacity:0.2;enable-background:new    ;" d="M378.014,113.241c-9.094,1.857-17.459,6.309-24.077,12.817
				c0.63,1.185,0.338,2.922-0.594,3.942c1.696,3.186,3.393,6.373,5.089,9.559c0.934-1.021,2.245-0.836,2.877,0.346
				c6.618-6.508,14.983-10.961,24.077-12.817c-0.63-1.183-0.049-2.375,1.32-2.58c-1.696-3.186-3.393-6.373-5.089-9.559
				C380.247,115.154,378.645,114.426,378.014,113.241z M370.368,128.204c0.176,0.331,0.353,0.662,0.529,0.994
				c-0.246,0.132-0.491,0.266-0.735,0.402c-0.175-0.328-0.35-0.657-0.524-0.985c-0.904,0.435-1.885,0.658-2.547,0.542
				c-0.029-0.381-0.058-0.761-0.087-1.14c0.614,0.092,1.41-0.044,2.123-0.361c-0.315-0.592-0.63-1.183-0.945-1.775
				c-1.121,0.31-2.324,0.638-2.979-0.596c-0.481-0.9-0.267-2.111,1.051-3.026c-0.178-0.334-0.356-0.669-0.534-1.003
				c0.244-0.136,0.489-0.27,0.735-0.402c0.175,0.328,0.35,0.657,0.525,0.985c0.686-0.323,1.477-0.471,2.139-0.4
				c0.033,0.36,0.067,0.72,0.1,1.08c-0.632-0.036-1.223,0.076-1.728,0.278c0.318,0.598,0.636,1.195,0.954,1.793
				c1.125-0.299,2.408-0.519,3.067,0.715C371.997,126.215,371.71,127.307,370.368,128.204z"/>
		</g>
	</g>
	<g>
		<path style="fill:#407BFF;" d="M319.651,415.559c-6.531-9.709-16.379-16.701-27.699-19.665c3.413-4.807,6.826-9.615,10.239-14.422
			c11.319,2.964,21.168,9.956,27.699,19.665C326.477,405.944,323.064,410.751,319.651,415.559z"/>
		<path style="opacity:0.3;fill:#FFFFFF;enable-background:new    ;" d="M319.651,415.559c-6.531-9.709-16.379-16.701-27.699-19.665
			c3.413-4.807,6.826-9.615,10.239-14.422c11.319,2.964,21.168,9.956,27.699,19.665
			C326.477,405.944,323.064,410.751,319.651,415.559z"/>
		<g>
			<path style="opacity:0.1;enable-background:new    ;" d="M312.097,396.614c-0.344,0.484-0.687,0.968-1.03,1.451
				c0.673,0.341,1.125,0.255,1.374-0.099C312.726,397.566,312.5,397.108,312.097,396.614z"/>
			<path style="opacity:0.1;enable-background:new    ;" d="M311.881,393.689c-0.28,0.394-0.039,0.811,0.354,1.285
				c0.345-0.487,0.691-0.973,1.036-1.46C312.607,393.197,312.137,393.328,311.881,393.689z"/>
			<path style="opacity:0.2;enable-background:new    ;" d="M327.234,399.096c-5.732-7.301-13.458-12.786-22.241-15.791
				c-0.778,1.094-2.461,1.611-3.791,1.233c-2.09,2.944-4.179,5.887-6.269,8.83c1.331,0.378,1.753,1.633,0.979,2.728
				c8.782,3.004,16.509,8.49,22.241,15.791c0.776-1.093,2.102-1.107,2.898,0.025c2.09-2.944,4.179-5.887,6.269-8.83
				C326.523,401.95,326.457,400.191,327.234,399.096z M310.432,398.96c-0.217,0.306-0.434,0.612-0.652,0.918
				c-0.228-0.161-0.458-0.32-0.689-0.477c0.215-0.304,0.431-0.607,0.646-0.91c-0.793-0.613-1.432-1.391-1.625-2.034
				c0.327-0.197,0.654-0.393,0.981-0.588c0.193,0.59,0.671,1.241,1.273,1.737c0.388-0.547,0.776-1.093,1.164-1.64
				c-0.779-0.863-1.611-1.792-0.801-2.931c0.59-0.833,1.768-1.184,3.176-0.415c0.219-0.309,0.438-0.618,0.658-0.927
				c0.231,0.157,0.46,0.316,0.689,0.477c-0.215,0.303-0.431,0.607-0.646,0.91c0.595,0.468,1.083,1.11,1.315,1.733
				c-0.307,0.191-0.614,0.382-0.921,0.573c-0.251-0.582-0.615-1.06-1.023-1.421c-0.392,0.552-0.784,1.104-1.176,1.656
				c0.771,0.872,1.542,1.921,0.734,3.063C312.939,399.526,311.835,399.758,310.432,398.96z"/>
		</g>
	</g>
	<g>
		<path style="fill:#407BFF;" d="M214.011,83.663c-6.53-9.709-16.379-16.701-27.699-19.665c3.413-4.807,6.826-9.615,10.239-14.422
			c11.319,2.964,21.168,9.956,27.699,19.665C220.837,74.048,217.424,78.856,214.011,83.663z"/>
		<path style="opacity:0.3;fill:#FFFFFF;enable-background:new    ;" d="M214.011,83.663c-6.53-9.709-16.379-16.701-27.699-19.665
			c3.413-4.807,6.826-9.615,10.239-14.422c11.319,2.964,21.168,9.956,27.699,19.665C220.837,74.048,217.424,78.856,214.011,83.663z"
			/>
		<g>
			<path style="opacity:0.1;enable-background:new    ;" d="M206.458,64.719c-0.343,0.484-0.687,0.968-1.03,1.451
				c0.673,0.341,1.125,0.256,1.374-0.098C207.087,65.67,206.86,65.212,206.458,64.719z"/>
			<path style="opacity:0.1;enable-background:new    ;" d="M206.242,61.793c-0.28,0.394-0.039,0.811,0.354,1.285
				c0.345-0.487,0.691-0.973,1.036-1.46C206.967,61.302,206.497,61.432,206.242,61.793z"/>
			<path style="opacity:0.2;enable-background:new    ;" d="M221.595,67.201c-5.732-7.301-13.459-12.786-22.241-15.791
				c-0.778,1.094-2.462,1.611-3.791,1.234c-2.09,2.943-4.18,5.887-6.269,8.83c1.331,0.378,1.753,1.633,0.979,2.728
				c8.782,3.004,16.509,8.49,22.241,15.791c0.776-1.093,2.102-1.107,2.898,0.025c2.089-2.944,4.179-5.887,6.269-8.83
				C220.884,70.055,220.818,68.296,221.595,67.201z M204.792,67.064c-0.217,0.306-0.434,0.612-0.652,0.918
				c-0.228-0.161-0.458-0.32-0.689-0.477c0.215-0.303,0.431-0.607,0.646-0.91c-0.794-0.614-1.433-1.391-1.625-2.034
				c0.327-0.197,0.654-0.393,0.98-0.588c0.193,0.59,0.671,1.241,1.273,1.737c0.388-0.547,0.776-1.093,1.164-1.64
				c-0.779-0.863-1.611-1.792-0.801-2.931c0.59-0.833,1.769-1.184,3.176-0.415c0.219-0.309,0.438-0.618,0.658-0.927
				c0.231,0.157,0.46,0.316,0.689,0.477c-0.215,0.303-0.431,0.607-0.646,0.91c0.595,0.469,1.083,1.11,1.315,1.733
				c-0.307,0.191-0.614,0.382-0.921,0.573c-0.251-0.582-0.615-1.06-1.023-1.421c-0.392,0.552-0.784,1.104-1.176,1.656
				c0.771,0.872,1.542,1.921,0.734,3.063C207.3,67.63,206.195,67.863,204.792,67.064z"/>
		</g>
	</g>
</g>
<g id="Coins">
	<g>
		<g>
			<path style="fill:#407BFF;" d="M287.72,94.073c2.611,4.65,0.959,10.536-3.691,13.147c-4.65,2.611-10.536,0.959-13.147-3.691
				c-2.611-4.65-0.959-10.536,3.691-13.147C279.223,87.771,285.109,89.423,287.72,94.073z"/>
			<path style="opacity:0.6;fill:#FFFFFF;enable-background:new    ;" d="M287.72,94.073c2.611,4.65,0.959,10.536-3.691,13.147
				c-4.65,2.611-10.536,0.959-13.147-3.691c-2.611-4.65-0.959-10.536,3.691-13.147C279.223,87.771,285.109,89.423,287.72,94.073z"/>
			<g>
				<path style="opacity:0.1;enable-background:new    ;" d="M277.34,98.092c0.236,0.421,0.721,0.402,1.314,0.265l-0.876-1.561
					C277.209,97.242,277.123,97.705,277.34,98.092z"/>
				<path style="opacity:0.1;enable-background:new    ;" d="M280.072,99.198l0.872,1.552c0.586-0.456,0.691-0.907,0.479-1.284
					C281.181,99.037,280.682,99.052,280.072,99.198z"/>
				<path style="opacity:0.1;enable-background:new    ;" d="M275.481,91.998c-3.757,2.11-5.092,6.866-2.982,10.623
					c2.11,3.757,6.866,5.092,10.623,2.982c3.757-2.11,5.092-6.866,2.982-10.623C283.994,91.224,279.238,89.888,275.481,91.998z
					 M281.48,101.706l0.551,0.982l-0.718,0.403l-0.547-0.973c-0.889,0.43-1.879,0.618-2.557,0.479l-0.103-1.107
					c0.626,0.109,1.427-0.005,2.128-0.319l-0.985-1.753c-1.107,0.31-2.327,0.58-3.012-0.639c-0.502-0.894-0.292-2.039,1.003-2.939
					l-0.556-0.991l0.719-0.403l0.546,0.973c0.669-0.329,1.435-0.506,2.081-0.465l0.138,1.088c-0.617-0.011-1.192,0.116-1.686,0.325
					l0.995,1.771c1.106-0.31,2.34-0.599,3.024,0.619C283.003,99.651,282.778,100.792,281.48,101.706z"/>
			</g>
		</g>
		<g>
			
				<ellipse transform="matrix(0.9343 -0.3564 0.3564 0.9343 -41.6178 50.406)" style="fill:#407BFF;" cx="115.974" cy="138.138" rx="9.656" ry="9.656"/>
			
				<ellipse transform="matrix(0.9343 -0.3564 0.3564 0.9343 -41.6178 50.406)" style="opacity:0.6;fill:#FFFFFF;enable-background:new    ;" cx="115.974" cy="138.138" rx="9.656" ry="9.656"/>
			<g>
				<path style="opacity:0.1;enable-background:new    ;" d="M114.013,137.429c0.236,0.421,0.721,0.402,1.314,0.265l-0.876-1.561
					C113.882,136.58,113.796,137.043,114.013,137.429z"/>
				<path style="opacity:0.1;enable-background:new    ;" d="M116.745,138.536l0.872,1.552c0.586-0.456,0.691-0.907,0.479-1.284
					C117.854,138.374,117.355,138.389,116.745,138.536z"/>
				<path style="opacity:0.1;enable-background:new    ;" d="M112.154,131.336c-3.757,2.11-5.092,6.866-2.982,10.623
					c2.11,3.757,6.866,5.092,10.623,2.982c3.757-2.11,5.092-6.866,2.982-10.623C120.666,130.561,115.91,129.226,112.154,131.336z
					 M118.153,141.044l0.551,0.982l-0.718,0.403l-0.547-0.973c-0.889,0.43-1.879,0.618-2.557,0.479l-0.103-1.107
					c0.626,0.109,1.427-0.005,2.128-0.319l-0.985-1.753c-1.107,0.31-2.327,0.58-3.012-0.639c-0.502-0.894-0.292-2.039,1.003-2.939
					l-0.556-0.991l0.718-0.403l0.547,0.973c0.669-0.33,1.435-0.506,2.081-0.465l0.138,1.088c-0.617-0.011-1.192,0.116-1.686,0.325
					l0.995,1.771c1.106-0.31,2.34-0.599,3.024,0.62C119.675,138.989,119.451,140.129,118.153,141.044z"/>
			</g>
		</g>
		<g>
			<path style="fill:#407BFF;" d="M395.124,359.799c2.611,4.65,0.959,10.536-3.691,13.147c-4.65,2.611-10.536,0.959-13.147-3.691
				c-2.611-4.65-0.959-10.536,3.691-13.147C386.626,353.497,392.513,355.149,395.124,359.799z"/>
			<path style="opacity:0.6;fill:#FFFFFF;enable-background:new    ;" d="M395.124,359.799c2.611,4.65,0.959,10.536-3.691,13.147
				c-4.65,2.611-10.536,0.959-13.147-3.691c-2.611-4.65-0.959-10.536,3.691-13.147C386.626,353.497,392.513,355.149,395.124,359.799
				z"/>
			<g>
				<path style="opacity:0.1;enable-background:new    ;" d="M384.744,363.818c0.236,0.421,0.721,0.402,1.314,0.265l-0.877-1.561
					C384.613,362.969,384.527,363.432,384.744,363.818z"/>
				<path style="opacity:0.1;enable-background:new    ;" d="M387.476,364.924l0.872,1.552c0.586-0.456,0.691-0.907,0.479-1.284
					C388.585,364.763,388.086,364.778,387.476,364.924z"/>
				<path style="opacity:0.1;enable-background:new    ;" d="M382.885,357.724c-3.757,2.11-5.092,6.866-2.982,10.623
					c2.11,3.757,6.866,5.092,10.623,2.982c3.757-2.11,5.092-6.866,2.982-10.623C391.397,356.95,386.642,355.615,382.885,357.724z
					 M388.884,367.432l0.551,0.982l-0.718,0.403l-0.547-0.973c-0.889,0.43-1.879,0.618-2.557,0.479l-0.103-1.107
					c0.626,0.109,1.427-0.005,2.128-0.319l-0.985-1.753c-1.107,0.31-2.327,0.58-3.012-0.639c-0.502-0.894-0.292-2.039,1.003-2.939
					l-0.556-0.991l0.718-0.403l0.547,0.973c0.669-0.329,1.435-0.506,2.081-0.465l0.138,1.088c-0.617-0.011-1.192,0.116-1.686,0.325
					l0.995,1.771c1.106-0.31,2.34-0.599,3.024,0.619C390.406,365.378,390.182,366.518,388.884,367.432z"/>
			</g>
		</g>
		<g>
			<path style="fill:#407BFF;" d="M194.772,414.363c2.611,4.65,0.959,10.536-3.691,13.147c-4.65,2.611-10.536,0.959-13.147-3.691
				c-2.611-4.65-0.959-10.536,3.691-13.147C186.275,408.061,192.161,409.714,194.772,414.363z"/>
			<path style="opacity:0.6;fill:#FFFFFF;enable-background:new    ;" d="M194.772,414.363c2.611,4.65,0.959,10.536-3.691,13.147
				c-4.65,2.611-10.536,0.959-13.147-3.691c-2.611-4.65-0.959-10.536,3.691-13.147C186.275,408.061,192.161,409.714,194.772,414.363
				z"/>
			<g>
				<path style="opacity:0.1;enable-background:new    ;" d="M184.393,418.383c0.236,0.421,0.721,0.402,1.314,0.265l-0.876-1.561
					C184.262,417.534,184.176,417.996,184.393,418.383z"/>
				<path style="opacity:0.1;enable-background:new    ;" d="M187.124,419.489l0.872,1.552c0.586-0.456,0.691-0.907,0.479-1.284
					C188.234,419.328,187.734,419.343,187.124,419.489z"/>
				<path style="opacity:0.1;enable-background:new    ;" d="M182.533,412.289c-3.757,2.11-5.092,6.866-2.982,10.623
					c2.11,3.757,6.866,5.092,10.623,2.982c3.757-2.11,5.092-6.866,2.982-10.623C191.046,411.514,186.29,410.179,182.533,412.289z
					 M188.533,421.997l0.551,0.982l-0.719,0.403l-0.546-0.973c-0.889,0.43-1.879,0.618-2.557,0.479l-0.103-1.107
					c0.626,0.109,1.427-0.005,2.128-0.319l-0.985-1.753c-1.107,0.31-2.327,0.58-3.012-0.639c-0.502-0.894-0.292-2.039,1.003-2.939
					l-0.556-0.991l0.718-0.404l0.547,0.973c0.669-0.329,1.435-0.505,2.081-0.465l0.138,1.088c-0.617-0.011-1.192,0.116-1.686,0.325
					l0.995,1.771c1.106-0.31,2.34-0.599,3.024,0.619C190.055,419.943,189.831,421.083,188.533,421.997z"/>
			</g>
		</g>
		<g>
			<path style="fill:#407BFF;" d="M366.563,209.669c-2.37,2.011-7.088,0.345-10.538-3.721c-3.451-4.066-4.327-8.992-1.957-11.003
				s7.088-0.345,10.538,3.721C368.056,202.732,368.933,207.658,366.563,209.669z"/>
			<path style="opacity:0.4;fill:#FFFFFF;enable-background:new    ;" d="M366.563,209.669c-2.37,2.011-7.088,0.345-10.538-3.721
				c-3.451-4.066-4.327-8.992-1.957-11.003s7.088-0.345,10.538,3.721C368.056,202.732,368.933,207.658,366.563,209.669z"/>
			<path style="fill:#407BFF;" d="M367.326,209.022c-2.37,2.011-7.088,0.345-10.538-3.721c-3.451-4.066-4.327-8.992-1.957-11.003
				c2.37-2.011,7.088-0.345,10.538,3.721S369.696,207.011,367.326,209.022z"/>
			<path style="opacity:0.6;fill:#FFFFFF;enable-background:new    ;" d="M367.326,209.022c-2.37,2.011-7.088,0.345-10.538-3.721
				c-3.451-4.066-4.327-8.992-1.957-11.003c2.37-2.011,7.088-0.345,10.538,3.721S369.696,207.011,367.326,209.022z"/>
			<g>
				<path style="opacity:0.1;enable-background:new    ;" d="M360.898,200.026c-0.215,0.182-0.033,0.595,0.269,1.104l0.795-0.675
					C361.451,199.952,361.095,199.859,360.898,200.026z"/>
				<path style="opacity:0.1;enable-background:new    ;" d="M361.065,202.297l-0.791,0.671c0.524,0.518,0.878,0.627,1.07,0.464
					C361.564,203.246,361.38,202.822,361.065,202.297z"/>
				<path style="opacity:0.1;enable-background:new    ;" d="M364.545,198.718c-2.788-3.285-6.6-4.631-8.515-3.007
					c-1.915,1.625-1.207,5.605,1.581,8.89c2.788,3.285,6.6,4.631,8.515,3.007C368.041,205.983,367.333,202.003,364.545,198.718z
					 M359.787,203.381l-0.5,0.424l-0.533-0.628l0.496-0.421c-0.611-0.774-1.086-1.624-1.224-2.193l0.744-0.038
					c0.14,0.527,0.498,1.212,0.962,1.822l0.894-0.758c-0.602-0.954-1.215-2.003-0.594-2.53c0.456-0.387,1.335-0.157,2.417,0.983
					l0.505-0.428l0.533,0.628l-0.496,0.421c0.464,0.583,0.853,1.241,1.049,1.788l-0.718,0.069c-0.206-0.524-0.495-1.018-0.813-1.447
					l-0.903,0.766c0.602,0.953,1.233,2.014,0.612,2.541C361.762,204.766,360.881,204.525,359.787,203.381z"/>
			</g>
		</g>
		<g>
			<path style="fill:#407BFF;" d="M79.922,292.852c-2.37,2.011-7.088,0.345-10.538-3.721c-3.451-4.066-4.327-8.992-1.957-11.003
				c2.37-2.011,7.088-0.345,10.538,3.721C81.415,285.915,82.291,290.841,79.922,292.852z"/>
			<path style="opacity:0.4;fill:#FFFFFF;enable-background:new    ;" d="M79.922,292.852c-2.37,2.011-7.088,0.345-10.538-3.721
				c-3.451-4.066-4.327-8.992-1.957-11.003c2.37-2.011,7.088-0.345,10.538,3.721C81.415,285.915,82.291,290.841,79.922,292.852z"/>
			<path style="fill:#407BFF;" d="M80.685,292.205c-2.37,2.011-7.088,0.345-10.538-3.721c-3.451-4.066-4.327-8.992-1.957-11.003
				s7.088-0.345,10.538,3.721C82.178,285.267,83.054,290.194,80.685,292.205z"/>
			<path style="opacity:0.6;fill:#FFFFFF;enable-background:new    ;" d="M80.685,292.205c-2.37,2.011-7.088,0.345-10.538-3.721
				c-3.451-4.066-4.327-8.992-1.957-11.003s7.088-0.345,10.538,3.721C82.178,285.267,83.054,290.194,80.685,292.205z"/>
			<g>
				<path style="opacity:0.1;enable-background:new    ;" d="M74.257,283.208c-0.215,0.182-0.033,0.595,0.269,1.104l0.795-0.675
					C74.81,283.135,74.454,283.041,74.257,283.208z"/>
				<path style="opacity:0.1;enable-background:new    ;" d="M74.424,285.479l-0.791,0.671c0.524,0.518,0.878,0.627,1.07,0.464
					C74.922,286.429,74.739,286.004,74.424,285.479z"/>
				<path style="opacity:0.1;enable-background:new    ;" d="M77.904,281.901c-2.788-3.285-6.6-4.631-8.515-3.007
					c-1.915,1.625-1.207,5.605,1.581,8.89c2.788,3.285,6.6,4.631,8.515,3.007C81.4,289.166,80.692,285.186,77.904,281.901z
					 M73.146,286.564l-0.5,0.424l-0.533-0.628l0.496-0.421c-0.611-0.774-1.086-1.624-1.223-2.193l0.744-0.038
					c0.14,0.527,0.498,1.212,0.962,1.822l0.894-0.758c-0.602-0.954-1.215-2.003-0.594-2.53c0.456-0.387,1.335-0.157,2.417,0.982
					l0.505-0.428l0.533,0.628l-0.496,0.421c0.464,0.583,0.853,1.241,1.049,1.788l-0.718,0.069c-0.206-0.524-0.495-1.018-0.813-1.447
					l-0.903,0.766c0.602,0.953,1.233,2.014,0.612,2.541C75.121,287.949,74.24,287.707,73.146,286.564z"/>
			</g>
		</g>
		<g>
			<path style="fill:#407BFF;" d="M266.932,354.351c1.342,2.803-1.47,6.942-6.28,9.245c-4.81,2.303-9.797,1.897-11.139-0.907
				c-1.342-2.803,1.47-6.942,6.28-9.245C260.603,351.141,265.59,351.547,266.932,354.351z"/>
			<path style="opacity:0.4;fill:#FFFFFF;enable-background:new    ;" d="M266.932,354.351c1.342,2.803-1.47,6.942-6.28,9.245
				c-4.81,2.303-9.797,1.897-11.139-0.907c-1.342-2.803,1.47-6.942,6.28-9.245C260.603,351.141,265.59,351.547,266.932,354.351z"/>
			
				<ellipse transform="matrix(0.902 -0.4318 0.4318 0.902 -129.1396 146.3564)" style="fill:#407BFF;" cx="257.791" cy="357.617" rx="9.656" ry="5.627"/>
			
				<ellipse transform="matrix(0.902 -0.4318 0.4318 0.902 -129.1396 146.3564)" style="opacity:0.6;fill:#FFFFFF;enable-background:new    ;" cx="257.791" cy="357.617" rx="9.656" ry="5.627"/>
			<g>
				<path style="opacity:0.1;enable-background:new    ;" d="M256.164,357.376c0.121,0.254,0.567,0.183,1.136,0.021l-0.45-0.941
					C256.234,356.823,256.053,357.143,256.164,357.376z"/>
				<path style="opacity:0.1;enable-background:new    ;" d="M258.403,357.792l0.448,0.936c0.635-0.375,0.83-0.69,0.721-0.917
					C259.448,357.552,258.991,357.621,258.403,357.792z"/>
				<path style="opacity:0.1;enable-background:new    ;" d="M255.827,353.516c-3.887,1.861-6.158,5.205-5.074,7.47
					c1.084,2.265,5.114,2.593,9,0.732c3.887-1.86,6.158-5.205,5.074-7.47C263.743,351.984,259.714,351.656,255.827,353.516z
					 M259.127,359.304l0.283,0.592l-0.743,0.356l-0.281-0.587c-0.904,0.394-1.847,0.637-2.432,0.625l0.153-0.729
					c0.545-0.001,1.299-0.174,2.007-0.467l-0.506-1.057c-1.076,0.339-2.246,0.666-2.598-0.069c-0.258-0.539,0.188-1.331,1.565-2.088
					l-0.286-0.597l0.743-0.356l0.281,0.587c0.682-0.3,1.418-0.509,1.996-0.559l-0.117,0.712c-0.559,0.066-1.11,0.22-1.606,0.418
					l0.511,1.068c1.075-0.339,2.262-0.68,2.613,0.055C260.969,357.746,260.511,358.537,259.127,359.304z"/>
			</g>
		</g>
		<g>
			<path style="fill:#407BFF;" d="M150.13,212.626c-3.318,4.175-7.784,6.147-9.974,4.406c-2.191-1.741-1.276-6.537,2.042-10.711
				c3.318-4.175,7.784-6.147,9.974-4.406C154.363,203.656,153.448,208.452,150.13,212.626z"/>
			<path style="opacity:0.4;fill:#FFFFFF;enable-background:new    ;" d="M150.13,212.626c-3.318,4.175-7.784,6.147-9.974,4.406
				c-2.191-1.741-1.276-6.537,2.042-10.711c3.318-4.175,7.784-6.147,9.974-4.406C154.363,203.656,153.448,208.452,150.13,212.626z"
				/>
			
				<ellipse transform="matrix(0.6222 -0.7828 0.7828 0.6222 -108.9584 194.4018)" style="fill:#407BFF;" cx="146.947" cy="210.097" rx="9.656" ry="5.066"/>
			
				<ellipse transform="matrix(0.6222 -0.7828 0.7828 0.6222 -108.9584 194.4018)" style="opacity:0.6;fill:#FFFFFF;enable-background:new    ;" cx="146.947" cy="210.097" rx="9.656" ry="5.066"/>
			<g>
				<path style="opacity:0.1;enable-background:new    ;" d="M147.37,208.416c-0.3,0.378-0.26,0.692-0.127,1.016l1.114-1.401
					C147.994,207.885,147.645,208.069,147.37,208.416z"/>
				<path style="opacity:0.1;enable-background:new    ;" d="M146.693,210.819l-1.107,1.393c0.37,0.153,0.711-0.012,0.98-0.351
					C146.872,211.476,146.835,211.15,146.693,210.819z"/>
				<path style="opacity:0.1;enable-background:new    ;" d="M151.802,203.989c-1.77-1.407-5.378,0.187-8.059,3.56
					c-2.681,3.373-3.42,7.248-1.65,8.655s5.378-0.187,8.059-3.56C152.833,209.271,153.572,205.396,151.802,203.989z
					 M144.903,213.071l-0.701,0.881l-0.339-0.269l0.695-0.874c-0.367-0.369-0.56-0.933-0.493-1.458l0.818-0.647
					c-0.048,0.475,0.08,0.95,0.351,1.255l1.251-1.574c-0.289-0.577-0.556-1.251,0.314-2.346c0.638-0.803,1.501-1.261,2.239-0.866
					l0.707-0.89l0.339,0.269l-0.695,0.874c0.281,0.275,0.453,0.694,0.457,1.147l-0.802,0.661c-0.025-0.418-0.15-0.736-0.332-0.957
					l-1.264,1.59c0.29,0.577,0.571,1.25-0.299,2.344C146.512,213.014,145.652,213.46,144.903,213.071z"/>
			</g>
		</g>
		<g>
			<path style="fill:#407BFF;" d="M426.944,261.748c-3.318,4.175-7.784,6.147-9.974,4.406c-2.19-1.741-1.276-6.537,2.042-10.711
				c3.318-4.175,7.784-6.147,9.974-4.406C431.177,252.778,430.263,257.573,426.944,261.748z"/>
			<path style="opacity:0.4;fill:#FFFFFF;enable-background:new    ;" d="M426.944,261.748c-3.318,4.175-7.784,6.147-9.974,4.406
				c-2.19-1.741-1.276-6.537,2.042-10.711c3.318-4.175,7.784-6.147,9.974-4.406C431.177,252.778,430.263,257.573,426.944,261.748z"
				/>
			<path style="fill:#407BFF;" d="M427.728,262.371c-3.318,4.175-7.784,6.147-9.974,4.406c-2.19-1.741-1.276-6.537,2.042-10.711
				c3.318-4.175,7.784-6.147,9.974-4.406C431.96,253.4,431.046,258.196,427.728,262.371z"/>
			<path style="opacity:0.6;fill:#FFFFFF;enable-background:new    ;" d="M427.728,262.371c-3.318,4.175-7.784,6.147-9.974,4.406
				c-2.19-1.741-1.276-6.537,2.042-10.711c3.318-4.175,7.784-6.147,9.974-4.406C431.96,253.4,431.046,258.196,427.728,262.371z"/>
			<g>
				<path style="opacity:0.1;enable-background:new    ;" d="M424.184,257.538c-0.3,0.378-0.26,0.692-0.127,1.016l1.114-1.401
					C424.809,257.006,424.46,257.191,424.184,257.538z"/>
				<path style="opacity:0.1;enable-background:new    ;" d="M423.507,259.941l-1.107,1.393c0.37,0.153,0.711-0.013,0.98-0.351
					C423.686,260.597,423.649,260.272,423.507,259.941z"/>
				<path style="opacity:0.1;enable-background:new    ;" d="M428.616,253.111c-1.77-1.407-5.378,0.187-8.059,3.56
					c-2.681,3.373-3.42,7.248-1.65,8.655c1.77,1.407,5.378-0.187,8.059-3.56C429.647,258.392,430.386,254.517,428.616,253.111z
					 M421.717,262.193l-0.7,0.881l-0.339-0.269l0.695-0.874c-0.367-0.369-0.56-0.933-0.493-1.458l0.818-0.647
					c-0.048,0.475,0.08,0.95,0.351,1.255l1.251-1.574c-0.29-0.577-0.556-1.251,0.314-2.346c0.638-0.803,1.501-1.261,2.239-0.866
					l0.707-0.89l0.338,0.269l-0.695,0.874c0.281,0.275,0.453,0.694,0.457,1.147l-0.802,0.661c-0.025-0.418-0.15-0.736-0.332-0.957
					l-1.264,1.59c0.29,0.577,0.571,1.25-0.299,2.344C423.327,262.135,422.466,262.582,421.717,262.193z"/>
			</g>
		</g>
	</g>
</g>
</svg>
