<svg width="11" height="13" viewBox="0 0 11 13" fill="none" xmlns="http://www.w3.org/2000/svg">
<path d="M10.753 2.61013C10.6578 2.43136 10.4728 2.32031 10.2703 2.32031H8.7169C8.58721 1.59092 7.9489 1.03516 7.18281 1.03516C6.41672 1.03516 5.77841 1.59092 5.64871 2.32031H4.07495C4.19837 2.13142 4.27045 1.90605 4.27045 1.66406C4.27045 1.00065 3.73074 0.460938 3.06733 0.460938C2.40391 0.460938 1.8642 1.00065 1.8642 1.66406C1.8642 1.90605 1.93628 2.13142 2.05971 2.32031H0.776578C0.574043 2.32031 0.389117 2.43136 0.293906 2.61013C0.198723 2.78887 0.209769 3.00432 0.322781 3.17237L3.9922 8.62898V11.7266C3.9922 11.8188 4.03866 11.9048 4.1158 11.9553C4.161 11.9849 4.2132 12 4.26567 12C4.30269 12 4.33985 11.9925 4.37482 11.9773L6.89045 10.8818C6.9902 10.8383 7.0547 10.7399 7.0547 10.6311V8.62895L10.7241 3.17234C10.8371 3.00432 10.8482 2.78887 10.753 2.61013ZM7.18281 1.58203C7.64593 1.58203 8.03705 1.89493 8.15668 2.32031H6.20896C6.32856 1.89493 6.71971 1.58203 7.18281 1.58203ZM3.06736 1.00781C3.4292 1.00781 3.72361 1.30222 3.72361 1.66406C3.72361 2.0259 3.4292 2.32031 3.06736 2.32031C2.70552 2.32031 2.41111 2.0259 2.41111 1.66406C2.41111 1.30222 2.70552 1.00781 3.06736 1.00781ZM6.55434 8.39298C6.52402 8.43807 6.5078 8.49119 6.5078 8.54555V10.4519L4.53905 11.3092V8.81899H5.5269C5.67792 8.81899 5.80034 8.69657 5.80034 8.54555C5.80034 8.39453 5.67792 8.27212 5.5269 8.27212H4.41125L1.65929 4.17969H7.18281C7.33383 4.17969 7.45625 4.05727 7.45625 3.90625C7.45625 3.75523 7.33383 3.63281 7.18281 3.63281H1.29154L0.776687 2.86719H10.2703L6.55434 8.39298Z" fill="white" fill-opacity="0.4" stroke="white" stroke-opacity="0.4" stroke-width="0.1"/>
</svg>
