<svg width="123" height="37" viewBox="0 0 123 37" fill="none" xmlns="http://www.w3.org/2000/svg">
<mask id="mask0_5_392" style="mask-type:luminance" maskUnits="userSpaceOnUse" x="104" y="10" width="19" height="27">
<path d="M122.634 36.0286C121.895 36.1433 121.155 36.2708 120.416 36.3855C118.402 36.6915 116.374 36.972 114.335 36.921C112.728 36.87 111.16 36.6533 109.668 36.0286C107.935 35.3019 106.685 34.0779 105.882 32.3951C105.219 31.0054 104.862 29.5265 104.645 28.0221C104.352 25.9567 104.301 23.8786 104.39 21.7877C104.479 19.9391 104.696 18.1032 105.283 16.3311C105.716 14.9924 106.354 13.7685 107.374 12.7741C108.406 11.7669 109.643 11.1549 111.02 10.7725C112.358 10.4027 113.735 10.288 115.125 10.3007C117.152 10.3007 119.167 10.594 121.155 10.9637C121.653 11.0529 122.137 11.1422 122.634 11.2442V12.6466C122.634 12.7103 122.609 12.7868 122.596 12.8506C122.558 13.59 122.532 14.3422 122.494 15.0817C122.494 15.2729 122.469 15.4642 122.456 15.6171C120.696 15.5024 118.975 15.3622 117.254 15.2729C116.03 15.2092 114.806 15.2729 113.608 15.5789C112.027 15.9869 110.994 16.9431 110.535 18.524C110.268 19.4547 110.089 20.3981 110.051 21.367C110 22.6037 109.987 23.8404 110.013 25.0898C110.038 26.301 110.217 27.4994 110.548 28.6723C110.994 30.2404 111.976 31.2476 113.557 31.6556C114.641 31.9361 115.724 32.0508 116.846 31.9743C118.325 31.8851 119.804 31.7703 121.283 31.6684C121.691 31.6429 122.099 31.6174 122.558 31.5919C122.558 31.9233 122.558 32.2166 122.558 32.5225C122.583 33.0708 122.609 33.619 122.634 34.1799V36.0541V36.0286Z" fill="white"/>
</mask>
<g mask="url(#mask0_5_392)">
<path d="M123.565 9.35547H103.409V37.8626H123.565V9.35547Z" fill="white"/>
</g>
<mask id="mask1_5_392" style="mask-type:luminance" maskUnits="userSpaceOnUse" x="66" y="11" width="24" height="26">
<path d="M72.9001 36.9495C70.7072 28.4458 68.5144 19.9549 66.3215 11.4512C66.398 11.4512 66.4745 11.4512 66.5383 11.4512C68.3359 11.4512 70.1208 11.4512 71.9184 11.4512C72.0969 11.4512 72.1607 11.5149 72.1989 11.6807C73.6778 17.9532 75.1567 24.2131 76.6356 30.4857C76.7631 31.0084 76.8906 31.5311 77.0053 32.0538C77.0308 32.1941 77.0946 32.2323 77.2348 32.2323C77.6555 32.2323 78.089 32.2323 78.5097 32.2323C78.65 32.2323 78.701 32.1813 78.7265 32.0411C79.6189 28.4076 80.5114 24.7868 81.4038 21.1533C82.1815 17.966 82.9719 14.7915 83.7496 11.6042C83.7496 11.5532 83.7751 11.5149 83.8006 11.4512H89.4485C89.2445 12.2416 89.0406 13.0321 88.8366 13.8225C86.8604 21.4465 84.8716 29.0705 82.9082 36.6945C82.8445 36.924 82.768 36.975 82.5385 36.975C79.4277 36.975 76.3169 36.975 73.2061 36.975H72.9256L72.9001 36.9495Z" fill="white"/>
</mask>
<g mask="url(#mask1_5_392)">
<path d="M90.3531 10.4829H65.3774V37.8809H90.3531V10.4829Z" fill="white"/>
</g>
<mask id="mask2_5_392" style="mask-type:luminance" maskUnits="userSpaceOnUse" x="20" y="13" width="28" height="24">
<path d="M37.1497 17.7757C37.8382 16.2968 38.5266 14.8307 39.2406 13.3008C39.8398 13.7343 40.4517 14.104 41 14.5629C43.4605 16.5773 44.9649 19.1654 45.5132 22.3017C45.7554 23.6914 45.6789 24.826 45.6916 26.4962C45.6916 26.6364 45.6916 26.7767 45.6916 26.9169C45.6916 28.5743 45.6917 30.2189 45.7044 31.8763C45.7044 32.246 45.7426 32.6158 45.7554 32.9982C46.1761 33.062 46.3674 33.113 46.7881 33.1767C47.0176 33.215 47.247 33.2277 47.4765 33.2787C47.5275 33.2787 47.6168 33.368 47.6168 33.4062C47.6168 34.4516 47.6168 35.4843 47.6168 36.568H47.3745C45.2964 36.568 43.2183 36.568 41.1402 36.568C40.9617 36.568 40.8725 36.5298 40.8725 36.3385C40.8725 36.211 40.847 36.0835 40.847 35.9561C40.847 35.4206 40.847 34.8851 40.847 34.3242C37.5067 36.7847 33.8349 37.5879 29.8317 36.568C26.9759 35.8413 24.6683 34.2349 22.9216 31.8763C21.277 29.6707 20.4738 27.1591 20.4355 24.3926H25.3057C25.3567 26.6492 26.1854 28.5743 27.8556 30.1042C29.0795 31.2261 30.5329 31.9018 32.1903 32.0676C35.6963 32.4245 38.9218 30.4867 40.2223 27.3249C41.5482 24.1121 40.5792 19.9558 37.1497 17.7885" fill="white"/>
</mask>
<g mask="url(#mask2_5_392)">
<path d="M48.5468 12.3569H19.4915V37.919H48.5468V12.3569Z" fill="white"/>
</g>
<mask id="mask3_5_392" style="mask-type:luminance" maskUnits="userSpaceOnUse" x="27" y="18" width="12" height="12">
<path d="M33.1857 29.8489C30.1641 29.8489 27.7163 27.3883 27.7291 24.3795C27.7291 21.358 30.1896 18.9102 33.1984 18.9229C36.2327 18.9229 38.6678 21.3835 38.6551 24.405C38.6551 27.4266 36.1945 29.8617 33.1729 29.8489" fill="white"/>
</mask>
<g mask="url(#mask3_5_392)">
<path d="M39.5995 17.9785H26.7993V30.7787H39.5995V17.9785Z" fill="white"/>
</g>
<mask id="mask4_5_392" style="mask-type:luminance" maskUnits="userSpaceOnUse" x="93" y="11" width="7" height="26">
<path d="M99.0106 11.4268H93.4774V36.9251H99.0106V11.4268Z" fill="white"/>
</mask>
<g mask="url(#mask4_5_392)">
<path d="M99.9549 10.4829H92.5476V37.8554H99.9549V10.4829Z" fill="white"/>
</g>
<mask id="mask5_5_392" style="mask-type:luminance" maskUnits="userSpaceOnUse" x="92" y="0" width="9" height="9">
<path d="M92.163 4.1451C92.163 1.76101 93.9989 -0.0621242 96.3575 0.00162163C98.2699 0.0526183 99.9528 1.56977 100.195 3.45665C100.373 4.79531 100.08 5.98098 99.1496 7.00092C97.7217 8.58181 95.1591 8.72205 93.5654 7.31964C92.6092 6.4782 92.1503 5.40727 92.1503 4.1451" fill="white"/>
</mask>
<g mask="url(#mask5_5_392)">
<path d="M101.19 -0.939453H91.2325V9.22163H101.19V-0.939453Z" fill="white"/>
</g>
<mask id="mask6_5_392" style="mask-type:luminance" maskUnits="userSpaceOnUse" x="28" y="11" width="5" height="6">
<path d="M32.178 16.6632C31.7317 16.7651 31.2983 16.8799 30.8521 16.9691C30.8011 16.9691 30.7246 16.8926 30.6863 16.8289C30.0234 15.5795 29.3604 14.3301 28.6974 13.0806C28.621 12.9404 28.5572 12.8129 28.4807 12.6727C29.1054 12.3157 31.1708 11.8185 32.178 11.793V16.6632Z" fill="white"/>
</mask>
<g mask="url(#mask6_5_392)">
<path d="M33.108 10.8633H27.5366V17.9136H33.108V10.8633Z" fill="white"/>
</g>
<mask id="mask7_5_392" style="mask-type:luminance" maskUnits="userSpaceOnUse" x="23" y="13" width="6" height="6">
<path d="M28.8514 17.7887C28.5327 18.0437 28.2139 18.2859 27.8952 18.5409C26.5948 17.5592 25.2944 16.5775 23.9812 15.5831C24.7462 14.7544 25.6003 14.066 26.5565 13.4795C27.3215 14.9201 28.0864 16.3608 28.8514 17.7887Z" fill="white"/>
</mask>
<g mask="url(#mask7_5_392)">
<path d="M29.7958 12.5493H23.0515V19.4849H29.7958V12.5493Z" fill="white"/>
</g>
<mask id="mask8_5_392" style="mask-type:luminance" maskUnits="userSpaceOnUse" x="34" y="11" width="4" height="6">
<path d="M34.2832 11.7928C34.8059 11.7418 36.7693 12.1625 37.3303 12.4558C36.6418 13.9219 35.9533 15.4008 35.2649 16.8797C34.9334 16.8032 34.6147 16.7395 34.2832 16.663V11.7928Z" fill="white"/>
</mask>
<g mask="url(#mask8_5_392)">
<path d="M38.2747 10.8633H33.3535V17.8243H38.2747V10.8633Z" fill="white"/>
</g>
<mask id="mask9_5_392" style="mask-type:luminance" maskUnits="userSpaceOnUse" x="21" y="17" width="6" height="4">
<path d="M21.5459 19.1909C21.9156 18.5152 22.2599 17.8777 22.6296 17.2275C23.9682 18.2347 25.2559 19.2037 26.5563 20.1853C26.4671 20.3383 26.3906 20.4786 26.3013 20.6443C24.7332 20.1598 23.165 19.6881 21.5459 19.1909Z" fill="white"/>
</mask>
<g mask="url(#mask9_5_392)">
<path d="M27.5008 16.2983H20.6162V21.5892H27.5008V16.2983Z" fill="white"/>
</g>
<mask id="mask10_5_392" style="mask-type:luminance" maskUnits="userSpaceOnUse" x="0" y="2" width="26" height="6">
<path d="M0.0509966 7.04992H25.4983V2.05225H0V7.10092H0.0509966V7.04992Z" fill="white"/>
</mask>
<g mask="url(#mask10_5_392)">
<path d="M26.43 1.12158H-0.929688V8.04438H26.43V1.12158Z" fill="white"/>
</g>
<mask id="mask11_5_392" style="mask-type:luminance" maskUnits="userSpaceOnUse" x="9" y="7" width="7" height="30">
<path d="M15.6428 7.48633H9.93115V36.8477H15.6428V7.48633Z" fill="white"/>
</mask>
<g mask="url(#mask11_5_392)">
<path d="M16.587 6.55615H9.00122V37.7916H16.587V6.55615Z" fill="white"/>
</g>
<mask id="mask12_5_392" style="mask-type:luminance" maskUnits="userSpaceOnUse" x="52" y="16" width="13" height="21">
<path d="M64.4225 31.7458C63.53 31.7841 62.6376 31.8223 61.7452 31.8478C61.095 31.8606 60.4448 31.8861 59.7945 31.8478C58.6344 31.7841 58.0734 31.2868 57.8439 30.1522C57.6144 29.0685 57.6017 27.9593 57.6017 26.8501C57.6017 23.2676 57.6017 19.6724 57.6017 16.0898H52.0813C52.0813 19.5449 52.0813 22.9999 52.0813 26.4549C52.0813 27.4621 52.1068 28.4693 52.1578 29.4765C52.2215 30.7386 52.4128 32.0008 52.8207 33.212C53.3307 34.7291 54.3124 35.7618 55.8296 36.2973C56.9005 36.667 58.0097 36.8072 59.1316 36.8455C60.3173 36.8837 61.4774 36.7562 62.6376 36.5778C63.3643 36.463 64.091 36.3355 64.8305 36.208C64.7412 34.7164 64.6647 33.2375 64.5755 31.7586C64.499 31.7586 64.4607 31.7586 64.4097 31.7586" fill="white"/>
</mask>
<g mask="url(#mask12_5_392)">
<path d="M65.7877 15.1699H51.1516V37.7869H65.7877V15.1699Z" fill="white"/>
</g>
<mask id="mask13_5_392" style="mask-type:luminance" maskUnits="userSpaceOnUse" x="48" y="3" width="17" height="13">
<path d="M57.4742 15.5049H57.7674C58.9531 15.5049 60.1388 15.5049 61.3244 15.5049H64.3587C64.4862 15.4921 64.5245 15.4156 64.5245 15.2626C64.5245 13.8347 64.5245 12.4196 64.5245 10.9917C64.5245 10.9279 64.5245 10.8514 64.5245 10.7622H57.4869V3.36768H51.9666V10.7494H48.7283V15.4921H57.4869L57.4742 15.5049Z" fill="white"/>
</mask>
<g mask="url(#mask13_5_392)">
<path d="M65.4551 2.42334H47.772V16.4347H65.4551V2.42334Z" fill="white"/>
</g>
</svg>
