<svg width="28" height="28" viewBox="0 0 28 28" fill="none" xmlns="http://www.w3.org/2000/svg">
<path d="M28 14C28 21.7319 21.7319 28 14 28C6.26811 28 0 21.7319 0 14C0 6.26811 6.26811 0 14 0C21.7319 0 28 6.26811 28 14Z" fill="#FFCC4D"/>
<path d="M14.0006 16.993C11.6937 16.993 10.1622 16.7239 8.26912 16.356C7.83589 16.2736 6.99512 16.356 6.99512 17.63C6.99512 20.1772 9.9219 23.3615 14.0006 23.3615C18.0792 23.3615 21.006 20.1772 21.006 17.63C21.006 16.356 20.1645 16.2728 19.732 16.356C17.8389 16.7239 16.3082 16.993 14.0006 16.993Z" fill="#664500"/>
<path d="M12.95 2.55209C12.2819 0.661313 10.2091 -0.331132 8.31753 0.335424C7.16953 0.739869 6.35675 1.6662 6.04019 2.74965C5.11386 2.10487 3.90053 1.89409 2.75408 2.29854C0.864082 2.96587 -0.129918 5.0402 0.538193 6.93098C0.633082 7.19854 0.759082 7.44665 0.905304 7.67609C2.42275 10.4621 6.80708 12.4205 9.46164 12.4446C11.5126 10.7592 13.6974 6.48298 13.1312 3.36253C13.1016 3.09187 13.0433 2.81965 12.95 2.55209ZM15.05 2.55209C15.7181 0.661313 17.7916 -0.331132 19.6824 0.335424C20.8304 0.739869 21.6432 1.6662 21.9605 2.74965C22.8869 2.10487 24.1002 1.89409 25.2466 2.29854C27.1366 2.96587 28.1299 5.0402 27.4633 6.93098C27.3676 7.19854 27.2424 7.44665 27.0954 7.67609C25.578 10.4621 21.1936 12.4205 18.5383 12.4446C16.4873 10.7592 14.3033 6.48298 14.8695 3.36253C14.8983 3.09187 14.9566 2.81965 15.05 2.55209Z" fill="#DD2E44"/>
</svg>
