<svg width="28" height="28" viewBox="0 0 28 28" fill="none" xmlns="http://www.w3.org/2000/svg">
<path d="M28 14C28 21.7319 21.7319 28 14 28C6.26889 28 0 21.7319 0 14C0 6.26889 6.26889 0 14 0C21.7319 0 28 6.26889 28 14Z" fill="#FFCC4D"/>
<path d="M8.94444 14.0001C10.0183 14.0001 10.8889 12.7813 10.8889 11.2779C10.8889 9.77444 10.0183 8.55566 8.94444 8.55566C7.87056 8.55566 7 9.77444 7 11.2779C7 12.7813 7.87056 14.0001 8.94444 14.0001Z" fill="#664500"/>
<path d="M19.0563 14.0001C20.1301 14.0001 21.0007 12.7813 21.0007 11.2779C21.0007 9.77444 20.1301 8.55566 19.0563 8.55566C17.9824 8.55566 17.1118 9.77444 17.1118 11.2779C17.1118 12.7813 17.9824 14.0001 19.0563 14.0001Z" fill="#664500"/>
<path d="M6.73994 21.6777C6.87838 21.8029 7.08527 21.8107 7.23383 21.7002C7.26416 21.6777 10.2843 19.4447 14.0005 19.4447C17.7074 19.4447 20.7376 21.6777 20.7672 21.7002C20.9157 21.8107 21.1226 21.8013 21.261 21.6777C21.3987 21.5532 21.4298 21.3479 21.3342 21.1892C21.2338 21.0228 18.832 17.1113 14.0005 17.1113C9.16894 17.1113 6.76638 21.022 6.66683 21.1892C6.57116 21.3487 6.60149 21.5532 6.73994 21.6777Z" fill="#664500"/>
</svg>
