<svg width="28" height="28" viewBox="0 0 28 28" fill="none" xmlns="http://www.w3.org/2000/svg">
<path d="M14 28C21.732 28 28 21.732 28 14C28 6.26801 21.732 0 14 0C6.26801 0 0 6.26801 0 14C0 21.732 6.26801 28 14 28Z" fill="#FFCC4D"/>
<path d="M8.17879 18.3717C8.21379 18.5109 9.08723 21.7776 14.0005 21.7776C18.9145 21.7776 19.7871 18.5109 19.8221 18.3717C19.8649 18.2029 19.7887 18.0279 19.6378 17.9408C19.4861 17.8544 19.2963 17.8801 19.1711 18.0007C19.1563 18.0154 17.6513 19.4442 14.0005 19.4442C10.3496 19.4442 8.84379 18.0155 8.82979 18.0015C8.75512 17.9276 8.65556 17.8887 8.55601 17.8887C8.49068 17.8887 8.42456 17.905 8.36468 17.9384C8.21223 18.0256 8.13601 18.2021 8.17879 18.3717Z" fill="#664500"/>
<path d="M9.33312 13.2218C10.407 13.2218 11.2776 12.003 11.2776 10.4996C11.2776 8.99612 10.407 7.77734 9.33312 7.77734C8.25923 7.77734 7.38867 8.99612 7.38867 10.4996C7.38867 12.003 8.25923 13.2218 9.33312 13.2218Z" fill="#664500"/>
<path d="M18.6671 13.2218C19.741 13.2218 20.6115 12.003 20.6115 10.4996C20.6115 8.99612 19.741 7.77734 18.6671 7.77734C17.5932 7.77734 16.7227 8.99612 16.7227 10.4996C16.7227 12.003 17.5932 13.2218 18.6671 13.2218Z" fill="#664500"/>
</svg>
