<svg width="28" height="28" viewBox="0 0 28 28" fill="none" xmlns="http://www.w3.org/2000/svg">
<path d="M28 14C28 21.7319 21.7319 28 14 28C6.26889 28 0 21.7319 0 14C0 6.26889 6.26889 0 14 0C21.7319 0 28 6.26889 28 14Z" fill="#FFCC4D"/>
<path d="M8.94444 15.5558C10.0183 15.5558 10.8889 14.337 10.8889 12.8336C10.8889 11.3301 10.0183 10.1113 8.94444 10.1113C7.87056 10.1113 7 11.3301 7 12.8336C7 14.337 7.87056 15.5558 8.94444 15.5558Z" fill="#664500"/>
<path d="M19.0558 15.5558C20.1297 15.5558 21.0002 14.337 21.0002 12.8336C21.0002 11.3301 20.1297 10.1113 19.0558 10.1113C17.9819 10.1113 17.1113 11.3301 17.1113 12.8336C17.1113 14.337 17.9819 15.5558 19.0558 15.5558Z" fill="#664500"/>
<path d="M19.444 20.2225H8.55512C8.12579 20.2225 7.77734 19.8749 7.77734 19.4448C7.77734 19.0147 8.12579 18.667 8.55512 18.667H19.444C19.8741 18.667 20.2218 19.0147 20.2218 19.4448C20.2218 19.8749 19.8741 20.2225 19.444 20.2225Z" fill="#664500"/>
</svg>
