<svg width="28" height="28" viewBox="0 0 28 28" fill="none" xmlns="http://www.w3.org/2000/svg">
<path d="M28 14C28 21.7319 21.7319 28 14 28C6.26889 28 0 21.7319 0 14C0 6.26889 6.26889 0 14 0C21.7319 0 28 6.26889 28 14Z" fill="#FFCC4D"/>
<path d="M8.94444 15.5558C10.0183 15.5558 10.8889 14.337 10.8889 12.8336C10.8889 11.3301 10.0183 10.1113 8.94444 10.1113C7.87056 10.1113 7 11.3301 7 12.8336C7 14.337 7.87056 15.5558 8.94444 15.5558Z" fill="#664500"/>
<path d="M19.0558 15.5558C20.1297 15.5558 21.0002 14.337 21.0002 12.8336C21.0002 11.3301 20.1297 10.1113 19.0558 10.1113C17.9819 10.1113 17.1113 11.3301 17.1113 12.8336C17.1113 14.337 17.9819 15.5558 19.0558 15.5558Z" fill="#664500"/>
<path d="M18.2666 21.6832C18.258 21.649 17.376 18.2773 14.0004 18.2773C10.6249 18.2773 9.74289 21.649 9.73434 21.6832C9.69311 21.8489 9.76856 22.0185 9.91478 22.1063C10.061 22.1935 10.2516 22.1732 10.3783 22.0597C10.3853 22.0542 11.1662 21.3885 14.0004 21.3885C16.7927 21.3885 17.5914 22.034 17.6218 22.0597C17.6957 22.1305 17.7921 22.1662 17.8893 22.1662C17.9547 22.1662 18.0208 22.1499 18.0807 22.1165C18.2331 22.0301 18.3093 21.8528 18.2666 21.6832Z" fill="#664500"/>
<path d="M7.77778 23.3334C7.77778 25.4817 6.03711 27.2223 3.88889 27.2223C1.74067 27.2223 0 25.4817 0 23.3334C0 21.1852 3.11111 15.5557 3.88889 15.5557C4.66667 15.5557 7.77778 21.1852 7.77778 23.3334Z" fill="#5DADEC"/>
<path d="M23.3331 10.1109C19.0133 10.1109 17.2649 6.71434 17.1926 6.56968C17.0004 6.18545 17.156 5.71801 17.5402 5.5259C17.9229 5.33379 18.3896 5.48857 18.5824 5.87046C18.6408 5.98401 19.9988 8.55534 23.3331 8.55534C23.7632 8.55534 24.1109 8.90379 24.1109 9.33312C24.1109 9.76323 23.7632 10.1109 23.3331 10.1109ZM4.66645 10.1109C4.23712 10.1109 3.88867 9.76245 3.88867 9.33312C3.88867 8.90379 4.23712 8.55534 4.66645 8.55534C8.61989 8.55534 9.33 6.12868 9.35878 6.02523C9.47156 5.61457 9.89545 5.36568 10.3069 5.47379C10.7191 5.5819 10.9688 5.99723 10.8653 6.41101C10.8272 6.5619 9.88067 10.1109 4.66645 10.1109Z" fill="#664500"/>
</svg>
